<svg width="128" height="128" viewBox="0 0 128 128" fill="none" xmlns="http://www.w3.org/2000/svg">
<rect width="128" height="128" rx="12" fill="white"/>
<path d="M104 64H40V96C40 98.21 41.79 100 44 100H100C102.21 100 104 98.21 104 96V64Z" fill="#185C37"/>
<path d="M104 64H72V82H104V64Z" fill="#107C42"/>
<path d="M104 46H72V64H104V46Z" fill="#21A366"/>
<path d="M72 46H40V64H72V46Z" fill="#3FA071"/>
<path d="M100 28H72V46H104V32C104 29.79 102.21 28 100 28Z" fill="#33C481"/>
<path d="M44 28H72V46H40V32C40 29.79 41.79 28 44 28Z" fill="#21A366"/>
<path opacity="0.05" d="M60.638 42H40V90H60.638C64.704 90 68 86.704 68 82.638V49.362C68 45.296 64.704 42 60.638 42Z" fill="black"/>
<path opacity="0.07" d="M60.426 88H40V42.666H60.426C63.874 42.666 66.668 45.46 66.668 48.908V81.758C66.666 85.206 63.872 88 60.426 88Z" fill="black"/>
<path opacity="0.09" d="M60.212 86H40V43.334H60.212C63.04 43.334 65.332 45.626 65.332 48.454V80.88C65.334 83.708 63.04 86 60.212 86Z" fill="black"/>
<path d="M60 84H28C25.79 84 24 82.21 24 80V48C24 45.79 25.79 44 28 44H60C62.21 44 64 45.79 64 48V80C64 82.21 62.21 84 60 84Z" fill="url(#paint0_linear_69_44)"/>
<path d="M35.614 54H40.386L44.258 61.508L48.35 54H52.808L46.666 64L52.948 74H48.246L44.026 66.14L39.824 74H35.052L41.438 63.964L35.614 54Z" fill="white"/>
<defs>
<linearGradient id="paint0_linear_69_44" x1="25.45" y1="45.45" x2="62.11" y2="82.11" gradientUnits="userSpaceOnUse">
<stop stop-color="#18884F"/>
<stop offset="1" stop-color="#0B6731"/>
</linearGradient>
</defs>
</svg>
