<svg width="128" height="128" viewBox="0 0 128 128" fill="none" xmlns="http://www.w3.org/2000/svg">
<rect width="128" height="128" rx="12" fill="white"/>
<path d="M6.64801 67.352C6.64801 71.262 6.28501 72.535 5.35201 73.472C4.31601 74.282 2.96901 74.727 1.57001 74.727L1.93401 76.961C4.09801 76.984 6.19901 76.324 7.84001 75.105C8.72301 74.175 9.37901 73.105 9.77001 71.953C10.1587 70.8124 10.2775 69.5972 10.117 68.403V53.608H6.64801V67.352ZM32.531 65.59C32.531 67.266 32.531 68.762 32.684 70.059H29.602L29.395 67.399C28.75 68.339 27.828 69.117 26.723 69.649C25.5937 70.1895 24.3538 70.4593 23.102 70.437C20.098 70.437 16.523 69.031 16.523 63.289V53.746H19.996V62.684C19.996 65.789 21.109 67.867 24.242 67.867C24.8829 67.8754 25.5202 67.7711 26.125 67.559C26.7083 67.3556 27.2488 67.0456 27.719 66.645C28.1636 66.2654 28.524 65.797 28.777 65.27C29.021 64.7634 29.1442 64.2072 29.137 63.645V53.633H32.605V65.5L32.531 65.59ZM39.11 59.063C39.11 56.984 39.11 55.285 38.953 53.746H42.063L42.215 56.539C42.91 55.527 43.906 54.699 45.102 54.141C46.3215 53.577 47.6574 53.3103 49 53.363C53.613 53.363 57.082 56.695 57.082 61.653C57.082 67.508 52.914 70.414 48.406 70.414C47.2628 70.4603 46.1238 70.248 45.074 69.793C44.047 69.343 43.168 68.672 42.527 67.843V76.781H39.11V59.063ZM42.527 63.418C42.535 63.824 42.59 64.23 42.684 64.625C42.977 65.617 43.644 66.496 44.582 67.125C45.52 67.754 46.676 68.09 47.863 68.09C51.516 68.09 53.664 65.52 53.664 61.79C53.664 58.527 51.644 55.734 47.992 55.734C46.547 55.836 45.195 56.387 44.188 57.289C43.184 58.191 42.59 59.375 42.528 60.625L42.527 63.418ZM63.266 53.73L67.438 63.36C67.8812 64.4549 68.2861 65.5649 68.652 66.688C69.016 65.707 69.402 64.453 69.872 63.293L73.652 53.73H77.305L72.125 65.348C69.535 70.934 67.953 73.816 65.57 75.558C64.371 76.508 62.906 77.168 61.324 77.48L60.469 74.98C61.5558 74.6746 62.5813 74.183 63.5 73.527C64.762 72.637 65.766 71.504 66.426 70.219C66.5653 70.0008 66.662 69.7582 66.711 69.504C66.6793 69.232 66.6001 68.9676 66.477 68.723L59.434 53.683H63.214L63.266 53.73ZM86.516 49.043V53.734H91.488V55.969H86.516V64.773C86.516 66.785 87.191 67.945 89.106 67.945C89.7845 67.9541 90.4619 67.886 91.125 67.742L91.281 69.98C90.2813 70.2753 89.241 70.41 88.199 70.379C87.5097 70.4173 86.8194 70.3258 86.164 70.109C85.5306 69.9021 84.9457 69.5687 84.445 69.129C83.391 67.91 82.91 66.395 83.098 64.883V55.945H80.145V53.711H83.148V49.734L86.516 49.043ZM97.883 62.418C97.813 63.176 97.933 63.938 98.238 64.648C98.5556 65.3803 99.0369 66.0299 99.645 66.547C100.27 67.086 101.02 67.5 101.848 67.762C102.672 68.027 103.558 68.129 104.434 68.07C106.198 68.1081 107.955 67.8196 109.614 67.219L110.211 69.453C108.175 70.172 106.025 70.5136 103.867 70.461C102.597 70.535 101.328 70.371 100.141 69.984C98.9813 69.6095 97.909 69.0051 96.988 68.207C96.098 67.426 95.41 66.488 94.98 65.457C94.5523 64.4412 94.3833 63.3352 94.488 62.238C94.488 57.32 97.883 53.434 103.426 53.434C109.641 53.434 111.196 58.125 111.196 61.121C111.226 61.582 111.226 62.043 111.196 62.504H97.804L97.883 62.418ZM108.035 60.184C108.136 59.5846 108.086 58.9695 107.891 58.394C107.685 57.8012 107.345 57.2639 106.898 56.824C106.426 56.3547 105.862 55.9877 105.242 55.746C104.598 55.4905 103.912 55.3582 103.219 55.356C101.797 55.446 100.461 55.988 99.48 56.883C98.496 57.773 97.937 58.949 97.91 60.183L108.035 60.184ZM116.46 58.809C116.46 56.891 116.46 55.234 116.305 53.715H119.415V56.91H119.57C119.895 55.926 120.57 55.05 121.496 54.41C122.426 53.77 123.563 53.395 124.75 53.336C125.074 53.301 125.406 53.301 125.734 53.336V56.129C125.338 56.09 124.939 56.09 124.543 56.129C123.367 56.168 122.246 56.574 121.395 57.273C120.539 57.973 120.012 58.918 119.906 59.926C119.809 60.386 119.758 60.848 119.75 61.312V70.004H116.332V58.832L116.46 58.809Z" fill="#4E4E4E"/>
<path d="M109.766 7.281C109.829 8.78422 109.45 10.273 108.676 11.563C107.904 12.8466 106.769 13.8728 105.414 14.512C104.062 15.1469 102.55 15.3628 101.074 15.132C99.5954 14.9016 98.2191 14.2355 97.121 13.219C96.0182 12.1963 95.2417 10.8709 94.8888 9.40887C94.5359 7.94684 94.6222 6.41318 95.137 5C95.6461 3.58958 96.5608 2.36112 97.766 1.469C98.9685 0.581197 100.409 0.0724872 101.902 0.00799842C102.893 -0.033753 103.882 0.121133 104.813 0.463717C105.743 0.806301 106.597 1.3298 107.324 2.004C108.8 3.37123 109.677 5.26654 109.762 7.277L109.766 7.281Z" fill="#767677"/>
<path d="M65.758 96.79C45.66 96.79 28.109 89.426 18.992 78.523C22.3726 88.2851 28.697 96.7588 37.094 102.777C45.4558 108.768 55.4835 111.99 65.77 111.992C76.0558 111.988 86.0826 108.766 94.445 102.777C102.841 96.7592 109.162 88.2851 112.539 78.523C103.406 89.426 85.855 96.79 65.758 96.79ZM65.75 25.883C85.848 25.883 103.402 33.25 112.516 44.148C109.135 34.3863 102.811 25.9129 94.414 19.895C86.0533 13.9043 76.0274 10.6803 65.742 10.675C55.4566 10.6803 45.4307 13.9043 37.07 19.895C28.672 25.9113 22.3479 34.3853 18.97 44.148C28.102 33.27 45.652 25.883 65.75 25.883Z" fill="#F37726"/>
<path d="M38.164 117.984C38.2464 119.879 37.7696 121.757 36.793 123.383C35.8225 125.001 34.3921 126.294 32.6842 127.096C30.9762 127.898 29.0681 128.174 27.203 127.887C25.338 127.599 23.6028 126.756 22.223 125.469C20.8374 124.179 19.8607 122.511 19.414 120.672C18.973 118.826 19.0818 116.89 19.727 115.105C20.3741 113.326 21.5318 111.777 23.055 110.652C24.8291 109.348 27.0022 108.704 29.2003 108.829C31.3983 108.955 33.4839 109.843 35.098 111.34C36.9553 113.066 38.057 115.455 38.164 117.988V117.984Z" fill="#9E9E9E"/>
<path d="M21.285 23.418C20.1803 23.466 19.0865 23.1818 18.145 22.602C17.1971 22.021 16.4425 21.1721 15.9766 20.1627C15.5106 19.1532 15.3542 18.0283 15.527 16.93C15.6929 15.8289 16.1827 14.802 16.934 13.98C17.6786 13.1617 18.6492 12.5826 19.723 12.316C20.796 12.048 21.9252 12.1121 22.961 12.5C24.0005 12.883 24.9013 13.5688 25.547 14.469C26.3095 15.5223 26.6861 16.806 26.6135 18.1044C26.5408 19.4027 26.0233 20.6364 25.148 21.598C24.6555 22.1416 24.0602 22.5823 23.3965 22.8946C22.7328 23.207 22.0138 23.3849 21.281 23.418H21.285Z" fill="#616262"/>
</svg>
