<svg width="128" height="128" viewBox="0 0 128 128" fill="none" xmlns="http://www.w3.org/2000/svg">
<rect width="128" height="128" rx="12" fill="white"/>
<path d="M2.001 90.458H6.109V74.235L12.469 88.378C13.219 90.09 14.246 90.695 16.261 90.695C18.276 90.695 19.264 90.09 20.014 88.378L26.374 74.235V90.458H30.482V74.262C30.482 72.682 29.85 71.917 28.546 71.523C25.425 70.549 23.331 71.392 22.383 73.499L16.142 87.457L10.099 73.498C9.19 71.392 7.057 70.549 3.936 71.522C2.632 71.917 2 72.681 2 74.261V90.458H2.001ZM33.899 77.252H38.006V86.19C37.968 86.675 38.162 87.815 40.412 87.851C41.56 87.869 49.274 87.851 49.346 87.851V77.208H53.463C53.482 77.208 53.459 91.722 53.459 91.782C53.481 95.362 49.018 96.139 46.96 96.199H33.988V93.435C34.01 93.435 46.951 93.438 46.983 93.434C49.628 93.155 49.315 91.841 49.314 91.399V90.321H40.583C36.521 90.284 33.933 88.511 33.9 86.471C33.898 86.284 33.989 77.342 33.899 77.252Z" fill="#00618A"/>
<path d="M56.63 90.458H68.442C69.825 90.458 71.169 90.169 72.235 89.669C74.012 88.853 74.881 87.747 74.881 86.297V83.295C74.881 82.11 73.894 81.003 71.958 80.267C70.931 79.871 69.666 79.662 68.441 79.662H63.463C61.804 79.662 61.014 79.162 60.817 78.056C60.778 77.924 60.778 77.819 60.778 77.687V75.817C60.778 75.712 60.778 75.606 60.817 75.475C61.014 74.632 61.449 74.395 62.911 74.263L63.306 74.237H75.039V71.499H63.504C61.845 71.499 60.976 71.604 60.186 71.841C57.737 72.605 56.669 73.816 56.669 75.923V78.319C56.669 80.163 58.764 81.743 62.279 82.112C62.675 82.137 63.069 82.165 63.464 82.165H67.731C67.889 82.165 68.047 82.165 68.166 82.19C69.47 82.295 70.022 82.533 70.418 83.006C70.5195 83.0997 70.6 83.2138 70.6543 83.3408C70.7086 83.4678 70.7354 83.6049 70.733 83.743V86.14C70.733 86.429 70.536 86.798 70.141 87.114C69.786 87.43 69.193 87.641 68.403 87.694L67.968 87.72H56.63V90.458ZM100.511 85.692C100.511 88.509 102.605 90.089 106.831 90.406C107.226 90.432 107.621 90.458 108.016 90.458H118.722V87.72H107.938C105.528 87.72 104.62 87.114 104.62 85.665V71.497H100.512V85.692H100.511ZM77.503 85.834V76.069C77.503 73.589 79.245 72.084 82.689 71.609C83.056 71.5564 83.4263 71.53 83.797 71.53H91.596C91.992 71.53 92.348 71.556 92.743 71.609C96.187 72.084 97.93 73.588 97.93 76.069V85.834C97.93 87.848 97.19 88.924 95.485 89.626L99.533 93.279H94.762L91.488 90.323L88.192 90.532H83.797C82.9806 90.5268 82.1686 90.4114 81.383 90.189C78.77 89.477 77.503 88.104 77.503 85.834ZM81.937 85.597C81.937 85.729 81.976 85.862 82.016 86.02C82.253 87.155 83.323 87.788 84.945 87.788H88.677L85.249 84.693H90.02L93.009 87.393C93.561 87.098 93.923 86.65 94.05 86.073C94.089 85.941 94.089 85.809 94.089 85.677V76.309C94.089 76.204 94.089 76.071 94.05 75.939C93.812 74.883 92.743 74.277 91.16 74.277H84.944C83.124 74.277 81.936 75.069 81.936 76.309V85.597H81.937Z" fill="#E48E00"/>
<path d="M122.336 66.952C119.811 66.883 117.882 67.118 116.232 67.813C115.763 68.011 115.016 68.016 114.94 68.603C115.197 68.874 115.237 69.277 115.442 69.609C115.836 70.246 116.501 71.1 117.094 71.547C117.741 72.036 118.409 72.56 119.105 72.984C120.34 73.738 121.72 74.168 122.911 74.922C123.612 75.368 124.308 75.928 124.993 76.431C125.332 76.678 125.558 77.065 125.999 77.22V77.149C125.768 76.855 125.708 76.451 125.496 76.143L124.562 75.209C123.649 73.997 122.491 72.934 121.258 72.05C120.276 71.345 118.078 70.392 117.668 69.249L117.596 69.178C118.292 69.099 119.108 68.847 119.75 68.675C120.83 68.385 121.795 68.46 122.91 68.172L124.418 67.74V67.454C123.855 66.876 123.452 66.11 122.838 65.587C121.231 64.218 119.475 62.85 117.668 61.708C116.666 61.076 115.427 60.665 114.364 60.129C114.008 59.948 113.38 59.855 113.143 59.554C112.584 58.843 112.281 57.942 111.85 57.113C110.93 55.3221 110.067 53.5018 109.265 51.655C108.721 50.41 108.365 49.182 107.686 48.065C104.425 42.704 100.915 39.468 95.478 36.288C94.321 35.611 92.928 35.345 91.457 34.996L89.087 34.852C88.606 34.651 88.104 34.061 87.651 33.775C85.849 32.637 81.229 30.162 79.895 33.417C79.053 35.471 81.155 37.475 81.906 38.516C82.433 39.246 83.109 40.064 83.486 40.885C83.734 41.425 83.776 41.966 83.989 42.537C84.51 43.943 84.965 45.474 85.64 46.773C85.981 47.431 86.358 48.124 86.789 48.712C87.053 49.072 87.507 49.232 87.578 49.789C87.135 50.409 87.109 51.373 86.86 52.158C85.738 55.697 86.161 60.096 87.794 62.715C88.295 63.52 89.475 65.244 91.097 64.582C92.516 64.004 92.2 62.213 92.606 60.632C92.698 60.275 92.641 60.011 92.821 59.771V59.843L94.114 62.428C95.071 63.969 96.768 65.578 98.207 66.665C98.953 67.228 99.541 68.203 100.505 68.532V68.459H100.434C100.246 68.168 99.955 68.048 99.715 67.813C99.153 67.262 98.528 66.578 98.064 65.946C96.755 64.17 95.599 62.225 94.545 60.201C94.042 59.235 93.605 58.169 93.181 57.185C93.017 56.806 93.019 56.232 92.679 56.037C92.213 56.757 91.53 57.34 91.17 58.191C90.596 59.551 90.522 61.21 90.309 62.93L90.165 63.001C89.164 62.76 88.813 61.73 88.441 60.847C87.501 58.614 87.326 55.017 88.154 52.446C88.368 51.78 89.335 49.685 88.943 49.07C88.756 48.457 88.139 48.103 87.795 47.633C87.3437 47.0041 86.9586 46.3302 86.646 45.622C85.876 43.881 85.517 41.926 84.708 40.165C84.32 39.323 83.666 38.472 83.128 37.724C82.533 36.894 81.866 36.284 81.404 35.282C81.24 34.926 81.017 34.355 81.26 33.989C81.337 33.742 81.448 33.639 81.692 33.558C82.108 33.237 83.268 33.665 83.702 33.845C84.854 34.324 85.815 34.779 86.791 35.425C87.259 35.736 87.732 36.336 88.299 36.502H88.945C89.956 36.734 91.089 36.573 92.033 36.86C93.703 37.368 95.199 38.157 96.557 39.015C100.696 41.629 104.079 45.349 106.395 49.787C106.767 50.502 106.929 51.183 107.256 51.941C107.918 53.469 108.752 55.042 109.41 56.537C110.067 58.028 110.708 59.533 111.637 60.774C112.125 61.426 114.011 61.776 114.868 62.138C115.469 62.392 116.453 62.657 117.022 62.999C118.109 63.655 119.163 64.436 120.182 65.154C120.691 65.516 122.258 66.303 122.336 66.952ZM90.237 39.593C89.8016 39.5859 89.3671 39.6343 88.944 39.737V39.808H89.016C89.267 40.325 89.71 40.657 90.021 41.101L90.74 42.609L90.811 42.538C91.256 42.225 91.459 41.724 91.457 40.958C91.278 40.77 91.252 40.535 91.098 40.312C90.894 40.012 90.496 39.844 90.237 39.593Z" fill="#00618A"/>
</svg>
