<svg width="128" height="128" viewBox="0 0 128 128" fill="none" xmlns="http://www.w3.org/2000/svg">
<rect width="128" height="128" rx="12" fill="white"/>
<path d="M52.73 55.07C52.843 55.082 52.949 55.113 53.05 55.156C53.152 55.206 53.246 55.266 53.324 55.343C53.429 55.441 53.527 55.547 53.621 55.66L61.828 66.035C61.763 65.4211 61.7303 64.8043 61.73 64.187V55.035H65.265V72.308H63.175C62.9081 72.316 62.6425 72.2683 62.395 72.168C62.149 72.0469 61.9367 71.8669 61.777 71.644L53.632 61.367C53.656 61.664 53.675 61.957 53.691 62.246C53.707 62.535 53.714 62.804 53.714 63.058V72.32H50.184V55.035H52.293C52.437 55.035 52.586 55.047 52.73 55.07ZM70.441 60.012V67.812C70.441 68.422 70.578 68.891 70.855 69.223C71.164 69.571 71.613 69.754 72.078 69.723C72.468 69.723 72.855 69.641 73.211 69.473C73.581 69.293 73.929 69.055 74.234 68.773V60.013H77.91V72.305H75.636C75.4371 72.3221 75.2383 72.27 75.0733 72.1576C74.9082 72.0452 74.787 71.8794 74.73 71.688L74.507 70.977C74.277 71.204 74.031 71.411 73.773 71.602C73.2488 71.982 72.6516 72.2493 72.019 72.387C71.6624 72.4655 71.2981 72.5034 70.933 72.5C70.3214 72.5112 69.7145 72.3915 69.153 72.149C68.6476 71.9273 68.1996 71.5932 67.843 71.172C67.4767 70.7381 67.2019 70.2347 67.035 69.692C66.8485 69.0846 66.7561 68.4523 66.761 67.817V60.012H70.441ZM80.281 72.309V60.012H82.558C82.761 60.004 82.961 60.059 83.133 60.164C83.293 60.278 83.41 60.442 83.461 60.629L83.656 61.293C83.856 61.083 84.07 60.883 84.296 60.699C84.519 60.519 84.758 60.367 85.016 60.239C85.5755 59.9538 86.196 59.809 86.824 59.817C87.4864 59.7902 88.1378 59.993 88.668 60.391C89.168 60.793 89.551 61.324 89.773 61.926C89.969 61.563 90.223 61.231 90.527 60.953C90.817 60.692 91.137 60.473 91.488 60.301C91.8354 60.1358 92.2014 60.0126 92.578 59.934C92.9543 59.8561 93.3377 59.8169 93.722 59.817C94.3609 59.8048 94.9965 59.9106 95.597 60.129C96.117 60.325 96.586 60.637 96.965 61.043C97.347 61.469 97.633 61.969 97.801 62.516C98 63.153 98.097 63.821 98.086 64.493V72.305H94.41V64.496C94.41 63.223 93.863 62.59 92.773 62.59C92.313 62.575 91.863 62.754 91.535 63.082C91.207 63.407 91.043 63.879 91.043 64.497V72.309H87.37V64.497C87.37 63.793 87.233 63.297 86.956 63.017C86.678 62.731 86.272 62.59 85.733 62.59C85.405 62.59 85.085 62.664 84.792 62.813C84.483 62.973 84.202 63.176 83.956 63.418V72.313L80.281 72.309ZM104.23 66.535V72.308H100.222V55.035H106.316C107.378 55.0113 108.437 55.1564 109.453 55.465C110.246 55.7068 110.98 56.1099 111.609 56.649C112.163 57.1392 112.592 57.7537 112.863 58.442C113.133 59.152 113.265 59.91 113.257 60.668C113.265 61.4783 113.125 62.2832 112.843 63.043C112.573 63.7512 112.137 64.3848 111.573 64.891C110.945 65.441 110.207 65.851 109.41 66.094C108.41 66.407 107.367 66.555 106.316 66.536L104.23 66.535ZM104.23 63.512H106.316C107.359 63.512 108.113 63.266 108.57 62.766C109.027 62.266 109.257 61.578 109.257 60.68C109.262 60.3132 109.203 59.9484 109.082 59.602C108.968 59.2858 108.783 58.9998 108.542 58.766C108.28 58.5209 107.968 58.3356 107.628 58.223C107.204 58.086 106.761 58.0198 106.316 58.027H104.23V63.512ZM120.38 75.5C120.298 75.71 120.161 75.895 119.985 76.04C119.754 76.1714 119.489 76.2306 119.224 76.21H116.466L118.841 71.234L113.935 60.011H117.181C117.419 60 117.653 60.07 117.845 60.211C117.997 60.324 118.111 60.481 118.177 60.66L120.193 65.96C120.38 66.437 120.533 66.925 120.653 67.425C120.735 67.171 120.821 66.921 120.915 66.679C121.009 66.437 121.103 66.183 121.189 65.933L123.017 60.656C123.084 60.4655 123.215 60.3041 123.387 60.199C123.564 60.082 123.771 60.015 123.982 60.015H126.946L120.38 75.5Z" fill="#003042"/>
<path d="M19.113 49.414L11.773 45.711L3.715 49.731L11.258 53.516L19.113 49.414ZM22.48 51.113L30.175 55L22.191 59.007L14.641 55.218L22.48 51.113ZM32.762 45.766L40.668 49.731L33.598 53.281L25.883 49.391L32.762 45.766ZM29.355 44.059L22.238 40.489L15.195 44.004L22.53 47.7L29.355 44.059ZM23.793 74.711V84.426L32.414 80.121L32.406 70.402L23.793 74.711ZM32.402 67.012L32.394 57.395L23.793 61.672V71.293L32.402 67.012ZM42.758 65.211V74.965L35.402 78.633L35.395 68.926L42.758 65.211ZM42.758 61.801V52.242L35.387 55.907L35.395 65.543L42.758 61.801Z" fill="#4CABCF"/>
<path d="M20.746 61.672L14.941 58.75V71.371C14.941 71.371 7.83601 56.254 7.18001 54.898C7.09401 54.722 6.74601 54.527 6.65601 54.48C5.37501 53.812 1.64401 51.922 1.64401 51.922V74.23L6.80901 76.995V65.332C6.80901 65.332 13.836 78.84 13.906 78.988C13.98 79.137 14.684 80.558 15.437 81.058C16.441 81.722 20.742 84.312 20.742 84.312L20.746 61.672Z" fill="#4C75CF"/>
</svg>
