<svg width="128" height="128" viewBox="0 0 128 128" fill="none" xmlns="http://www.w3.org/2000/svg">
<rect width="128" height="128" rx="12" fill="white"/>
<path d="M16.25 112.609C14.012 112.609 11.737 111.684 10.309 109.87V119.666H5.83301V95.486H9.88201L10.041 98.137C11.43 96.093 13.898 95.013 16.251 95.016C20.762 95.016 24.089 98.795 24.089 103.811C24.089 108.826 20.76 112.612 16.249 112.61L16.25 112.609ZM14.863 98.339C12.25 98.339 10.117 100.383 10.117 103.816C10.117 107.249 12.237 109.293 14.861 109.293C17.484 109.293 19.6 107.249 19.6 103.816C19.6 100.383 17.484 98.339 14.863 98.339ZM40.958 112.15L40.803 109.49C39.415 111.533 36.946 112.613 34.595 112.613C30.082 112.613 26.758 108.832 26.758 103.818C26.758 98.805 30.075 95.023 34.595 95.026C36.945 95.026 39.415 96.114 40.803 98.149L40.958 95.489H45.008V112.152L40.958 112.15ZM35.984 98.34C33.371 98.34 31.24 100.384 31.24 103.817C31.24 107.25 33.36 109.294 35.984 109.294C38.607 109.294 40.727 107.25 40.727 103.819C40.727 100.389 38.607 98.353 35.984 98.34ZM60.662 112.154V102.926C60.662 99.686 59.542 98.606 57.499 98.606C55.379 98.606 53.064 100.533 53.062 102.847V112.143H48.59V95.489H52.69L52.881 98.576C54.001 96.454 56.508 95.028 59.053 95.028C63.487 95.028 65.148 98.115 65.148 102.242V112.154H60.662ZM81.539 112.156L81.384 109.494C79.997 111.538 77.529 112.617 75.175 112.617C70.663 112.617 67.338 108.837 67.338 103.823C67.338 98.809 70.656 95.03 75.175 95.03C77.411 95.03 79.688 95.957 81.115 97.77V89.015H85.588V112.156H81.539ZM76.567 98.354C73.943 98.354 71.821 100.398 71.821 103.831C71.821 107.264 73.941 109.306 76.564 109.309C79.188 109.309 81.308 107.264 81.308 103.831C81.308 100.398 79.188 98.354 76.567 98.354ZM102.4 112.158L102.246 109.498C100.857 111.542 98.388 112.622 96.037 112.62C91.524 112.62 88.2 108.84 88.2 103.827C88.2 98.813 91.518 95.032 96.037 95.034C98.388 95.034 100.857 96.123 102.246 98.158L102.401 95.498H106.461V112.158H102.4ZM97.426 98.354C94.803 98.354 92.683 100.398 92.683 103.831C92.683 107.264 94.803 109.309 97.426 109.309C100.049 109.309 102.17 107.264 102.17 103.831C102.17 100.398 100.05 98.354 97.426 98.354ZM116.364 112.7C114.01 112.681 111.705 112.028 109.691 110.81L110.423 107.715C111.773 108.525 113.817 109.568 116.285 109.568C118.059 109.568 119.294 109.028 119.294 107.638C119.294 106.444 118.022 106.019 115.745 105.479C111.659 104.591 110.192 102.432 110.194 100.079C110.194 97.466 112.238 94.989 116.751 94.989C119.49 94.989 121.88 96.186 122.411 96.493L121.686 99.443C120.229 98.5647 118.567 98.0853 116.866 98.053C115.053 98.053 114.165 98.67 114.165 99.673C114.165 100.79 115.323 101.293 117.097 101.717C121.492 102.643 123.267 104.687 123.267 106.925C123.267 110.504 120.643 112.7 116.364 112.7ZM53.942 16.057H61.889V32.56H53.942V16.057ZM53.942 49.955H61.889V66.457H53.942V49.955Z" fill="#130754"/>
<path d="M53.942 37.379H61.889V45.165H53.942V37.379Z" fill="#FFCA00"/>
<path d="M41.175 29.626H49.122V84.48H41.175V29.626ZM66.445 63.57H74.393V80.072H66.445V63.57ZM66.445 29.646H74.393V46.148H66.445V29.646Z" fill="#130754"/>
<path d="M66.445 50.965H74.393V58.75H66.445V50.965Z" fill="#E70488"/>
<path d="M78.945 11.762H86.893V66.615H78.945V11.762Z" fill="#130754"/>
</svg>
