<svg width="128" height="128" viewBox="0 0 128 128" fill="none" xmlns="http://www.w3.org/2000/svg">
<rect width="128" height="128" rx="12" fill="white"/>
<path d="M32 64C32 83.882 48.118 100 68 100C87.882 100 104 83.882 104 64H68H32Z" fill="#D35230"/>
<path d="M68 28V64H104C104 44.118 87.882 28 68 28Z" fill="#FF8F6B"/>
<path d="M68 28C48.118 28 32 44.118 32 64H68V28Z" fill="#ED6C47"/>
<path opacity="0.05" d="M68 49.362C68 45.296 64.704 42 60.638 42H39.548C34.834 48.088 32 55.704 32 64C32 74.232 36.29 83.446 43.142 90H60.636C64.704 90 68 86.704 68 82.638V49.362Z" fill="black"/>
<path opacity="0.07" d="M60.426 42.666H39.05C34.64 48.642 32 56.004 32 64C32 73.234 35.506 81.628 41.222 88H60.426C63.874 88 66.668 85.206 66.668 81.758V48.908C66.666 45.462 63.872 42.666 60.426 42.666Z" fill="black"/>
<path opacity="0.09" d="M60.212 43.334H38.552C34.436 49.186 32 56.302 32 64C32 72.296 34.834 79.912 39.548 86H60.212C63.04 86 65.332 83.708 65.332 80.88V48.454C65.334 45.626 63.04 43.334 60.212 43.334Z" fill="black"/>
<path d="M60 84H28C25.79 84 24 82.21 24 80V48C24 45.79 25.79 44 28 44H60C62.21 44 64 45.79 64 48V80C64 82.21 62.21 84 60 84Z" fill="url(#paint0_linear_69_33)"/>
<path d="M45.346 54.024H36V74.024H40.048V66.982H44.6C48.352 66.982 51.394 63.94 51.394 60.188V60.072C51.394 56.732 48.686 54.024 45.346 54.024ZM47.14 60.716C47.14 62.434 45.746 63.828 44.028 63.828H40.048V57.178H44.028C45.746 57.178 47.14 58.572 47.14 60.29V60.716Z" fill="white"/>
<defs>
<linearGradient id="paint0_linear_69_33" x1="25.172" y1="45.172" x2="61.54" y2="81.54" gradientUnits="userSpaceOnUse">
<stop stop-color="#CA4E2A"/>
<stop offset="1" stop-color="#B63016"/>
</linearGradient>
</defs>
</svg>
