<svg width="128" height="128" viewBox="0 0 128 128" fill="none" xmlns="http://www.w3.org/2000/svg">
<rect width="128" height="128" rx="12" fill="white"/>
<path d="M64.5521 15.125H61.2396V34.25H64.5521V15.125Z" fill="#78909C"/>
<path d="M72.8334 23.0938H52.9584V26.2812H72.8334V23.0938Z" fill="#78909C"/>
<path d="M104.302 53.375H100.99V72.5H104.302V53.375Z" fill="#5C6BC0"/>
<path d="M112.583 61.3438H92.7084V64.5312H112.583V61.3438Z" fill="#5C6BC0"/>
<path d="M24.8021 53.375H21.4896V72.5H24.8021V53.375Z" fill="#78909C"/>
<path d="M33.0834 61.3438H13.2084V64.5312H33.0834V61.3438Z" fill="#78909C"/>
<path d="M64.5521 91.625H61.2396V110.75H64.5521V91.625Z" fill="#5C6BC0"/>
<path d="M72.8334 99.5938H52.9584V102.781H72.8334V99.5938Z" fill="#5C6BC0"/>
<path d="M81.6667 59.75H44.125V66.125H81.6667V59.75Z" fill="#E8762D"/>
<path d="M66.2084 44.875H59.5834V81H66.2084V44.875Z" fill="#E8762D"/>
<path d="M39.7083 25.75H35.2916V55.5H39.7083V25.75Z" fill="#FFA000"/>
<path d="M52.9583 38.5H22.0416V42.75H52.9583V38.5Z" fill="#FFA000"/>
<path d="M90.5 25.75H86.0834V55.5H90.5V25.75Z" fill="#607D8B"/>
<path d="M103.75 38.5H72.8334V42.75H103.75V38.5Z" fill="#607D8B"/>
<path d="M39.7083 70.375H35.2916V100.125H39.7083V70.375Z" fill="#C62828"/>
<path d="M52.9583 83.125H22.0416V87.375H52.9583V83.125Z" fill="#C62828"/>
<path d="M90.5 70.375H86.0834V100.125H90.5V70.375Z" fill="#0D47A1"/>
<path d="M103.75 83.125H72.8334V87.375H103.75V83.125Z" fill="#0D47A1"/>
</svg>
