<svg width="128" height="128" viewBox="0 0 128 128" fill="none" xmlns="http://www.w3.org/2000/svg">
<rect width="128" height="128" rx="12" fill="white"/>
<path d="M40 82.108V96C40 98.21 41.79 100 44 100H100C102.21 100 104 98.21 104 96V82.108H40Z" fill="url(#paint0_linear_69_22)"/>
<path d="M100 28H44C41.79 28 40 29.79 40 32V46.006H104V32C104 29.79 102.21 28 100 28Z" fill="url(#paint1_linear_69_22)"/>
<path d="M40 64.01H104V82.11H40V64.01Z" fill="url(#paint2_linear_69_22)"/>
<path d="M40 46.006H104V64.01H40V46.006Z" fill="url(#paint3_linear_69_22)"/>
<path opacity="0.05" d="M60.638 42H40V90H60.638C64.704 90 68 86.704 68 82.638V49.362C68 45.296 64.704 42 60.638 42Z" fill="black"/>
<path opacity="0.07" d="M60.426 88H40V42.666H60.426C63.874 42.666 66.668 45.46 66.668 48.908V81.758C66.666 85.206 63.872 88 60.426 88Z" fill="black"/>
<path opacity="0.09" d="M60.212 86H40V43.334H60.212C63.04 43.334 65.332 45.626 65.332 48.454V80.88C65.334 83.708 63.04 86 60.212 86Z" fill="black"/>
<path d="M60 84H28C25.79 84 24 82.21 24 80V48C24 45.79 25.79 44 28 44H60C62.21 44 64 45.79 64 48V80C64 82.21 62.21 84 60 84Z" fill="url(#paint4_linear_69_22)"/>
<path d="M52.806 54L49.714 68.528L46.288 54H41.914L38.38 68.978L35.194 54H31.282L35.97 74H40.674L44.1 58.622L47.528 74H52.03L56.718 54H52.806Z" fill="white"/>
<defs>
<linearGradient id="paint0_linear_69_22" x1="72" y1="100" x2="72" y2="82.108" gradientUnits="userSpaceOnUse">
<stop stop-color="#11408A"/>
<stop offset="1" stop-color="#103F8F"/>
</linearGradient>
<linearGradient id="paint1_linear_69_22" x1="72" y1="45.932" x2="72" y2="28.9" gradientUnits="userSpaceOnUse">
<stop stop-color="#42A3F2"/>
<stop offset="1" stop-color="#42A4EB"/>
</linearGradient>
<linearGradient id="paint2_linear_69_22" x1="40" y1="73.06" x2="104" y2="73.06" gradientUnits="userSpaceOnUse">
<stop stop-color="#1D59B3"/>
<stop offset="1" stop-color="#195BBC"/>
</linearGradient>
<linearGradient id="paint3_linear_69_22" x1="72" y1="-14.92" x2="72" y2="-15.042" gradientUnits="userSpaceOnUse">
<stop stop-color="#3079D6"/>
<stop offset="1" stop-color="#297CD2"/>
</linearGradient>
<linearGradient id="paint4_linear_69_22" x1="25.488" y1="45.488" x2="62.988" y2="82.986" gradientUnits="userSpaceOnUse">
<stop stop-color="#256AC2"/>
<stop offset="1" stop-color="#1247AD"/>
</linearGradient>
</defs>
</svg>
