<?xml version="1.0" encoding="UTF-8"?>
<svg xmlns="http://www.w3.org/2000/svg" xmlns:xlink="http://www.w3.org/1999/xlink" width="50px" height="50px" viewBox="0 0 50 50" version="1.1">
<g id="surface1">
<path style=" stroke:none;fill-rule:nonzero;fill:rgb(0%,0%,0%);fill-opacity:1;" d="M 21.167969 2.035156 C 19.101562 5.167969 17.550781 8.5 16.582031 11.898438 C 16.117188 13.535156 16.101562 13.667969 16.316406 13.667969 C 16.398438 13.667969 16.515625 13.382812 16.582031 13.035156 C 16.800781 11.832031 17.964844 8.566406 18.785156 6.832031 C 19.566406 5.199219 21.082031 2.582031 21.917969 1.417969 C 22.632812 0.449219 22.867188 0 22.683594 0 C 22.582031 0 21.898438 0.917969 21.167969 2.035156 Z M 21.167969 2.035156 "/>
<path style=" stroke:none;fill-rule:nonzero;fill:rgb(0%,0%,0%);fill-opacity:1;" d="M 23.683594 1.484375 C 22.300781 3.148438 21.117188 4.933594 21.214844 5.214844 C 21.25 5.316406 21.632812 4.851562 22.066406 4.167969 C 22.765625 3.101562 23.617188 2.015625 25.066406 0.367188 C 25.300781 0.101562 25.332031 0 25.148438 0.015625 C 25.015625 0.015625 24.367188 0.683594 23.683594 1.484375 Z M 23.683594 1.484375 "/>
<path style=" stroke:none;fill-rule:nonzero;fill:rgb(0%,0%,0%);fill-opacity:1;" d="M 27.832031 0.367188 C 27.832031 0.484375 27.632812 0.765625 27.398438 1.015625 C 27.167969 1.265625 26.984375 1.550781 27.015625 1.648438 C 27.066406 1.765625 27.449219 1.464844 27.917969 1 C 28.714844 0.183594 28.734375 0.167969 28.285156 0.167969 C 28.035156 0.167969 27.832031 0.25 27.832031 0.367188 Z M 27.832031 0.367188 "/>
<path style=" stroke:none;fill-rule:nonzero;fill:rgb(0%,0%,0%);fill-opacity:1;" d="M 31.167969 0.816406 C 31.785156 1 31.683594 1.75 30.832031 3.199219 C 30.433594 3.867188 29.949219 4.714844 29.75 5.082031 C 28.683594 6.964844 26.183594 10.867188 25.964844 10.964844 C 25.882812 11 25.832031 11.101562 25.832031 11.183594 C 25.832031 11.332031 23.964844 14.214844 23.648438 14.566406 C 23.398438 14.851562 24.601562 11.949219 25.714844 9.617188 C 26.316406 8.367188 26.75 7.332031 26.683594 7.332031 C 26.484375 7.332031 24.582031 11.25 23.816406 13.214844 C 23.449219 14.148438 23.050781 15.183594 22.898438 15.5 C 22.632812 16.082031 22.035156 18.234375 21.566406 20.25 C 21.417969 20.882812 21.234375 21.484375 21.167969 21.550781 C 21 21.734375 21.132812 18.734375 21.351562 17.167969 C 21.566406 15.632812 22.515625 11.582031 23 10.167969 C 23.398438 8.984375 23.351562 8.417969 22.933594 9.398438 C 22.417969 10.617188 22.199219 11.417969 21.515625 14.601562 C 20.949219 17.234375 20.667969 18.167969 19.898438 19.933594 C 18.832031 22.367188 17.5 25.683594 17.5 25.882812 C 17.5 26.300781 17.882812 25.648438 18.332031 24.449219 C 18.765625 23.332031 19.601562 21.367188 20.667969 18.917969 C 20.765625 18.699219 20.816406 19.300781 20.816406 20.601562 C 20.832031 22.765625 20.949219 23.714844 21.183594 23.566406 C 21.265625 23.515625 21.332031 23.117188 21.332031 22.667969 C 21.332031 22.214844 21.515625 21.265625 21.734375 20.550781 C 21.964844 19.832031 22.265625 18.765625 22.417969 18.167969 C 22.832031 16.449219 22.917969 16.300781 25.601562 12.234375 C 28.484375 7.851562 30.632812 4.398438 31.351562 2.949219 C 31.632812 2.417969 31.882812 2 31.898438 2.015625 C 31.933594 2.050781 32.714844 3.566406 33.632812 5.382812 C 34.566406 7.199219 35.550781 9 35.816406 9.382812 C 37.148438 11.332031 37.066406 10.851562 37.082031 16.484375 L 37.101562 21.550781 L 36.316406 22.5 C 35.882812 23.015625 35.25 23.683594 34.882812 23.949219 C 34.449219 24.316406 34.132812 24.765625 33.851562 25.484375 C 33.632812 26.050781 33.398438 26.5 33.316406 26.5 C 33.25 26.5 32.535156 26.285156 31.714844 26 C 30.917969 25.734375 29.382812 25.265625 28.332031 24.984375 C 26.066406 24.351562 24.367188 24.285156 21.75 24.734375 C 18.75 25.25 18.5 25.332031 18.5 25.667969 C 18.5 26 17.949219 26.398438 17.632812 26.300781 C 17.449219 26.234375 16.832031 26.714844 16.832031 26.898438 C 16.832031 26.949219 17.101562 26.867188 17.417969 26.734375 C 17.734375 26.617188 18.015625 26.5 18.066406 26.5 C 18.214844 26.5 18.316406 27.867188 18.417969 30.582031 C 18.515625 34.234375 18.785156 37.617188 19.101562 39.417969 C 19.351562 40.882812 19.351562 40.917969 19.015625 41.148438 C 18.816406 41.265625 18.667969 41.464844 18.667969 41.566406 C 18.667969 41.667969 18.734375 41.648438 18.816406 41.515625 C 19.035156 41.167969 19.484375 41.417969 19.601562 41.949219 C 19.75 42.632812 19.832031 42.882812 19.898438 42.816406 C 19.933594 42.785156 19.832031 42.035156 19.667969 41.167969 C 19.5 40.300781 19.265625 38.800781 19.167969 37.832031 C 19.066406 36.867188 18.949219 35.816406 18.917969 35.5 C 18.765625 34.25 18.5 27 18.582031 26.484375 C 18.699219 25.75 18.917969 25.617188 20.25 25.351562 C 21.617188 25.082031 21.667969 25.117188 21.667969 26.699219 C 21.667969 28.316406 22.132812 35.316406 22.351562 37.082031 C 22.535156 38.601562 22.800781 39.617188 22.816406 38.917969 C 22.832031 38.734375 22.765625 38.132812 22.667969 37.582031 C 22.582031 37.035156 22.398438 34.632812 22.265625 32.25 C 22.117188 29.867188 21.964844 27.300781 21.898438 26.566406 L 21.800781 25.199219 L 22.449219 25.101562 C 24.484375 24.75 26.25 24.816406 27.5 25.300781 C 27.632812 25.351562 27.867188 25.417969 28 25.433594 C 29.214844 25.601562 31.214844 26.183594 32.050781 26.601562 C 32.316406 26.734375 32.601562 26.800781 32.683594 26.75 C 32.75 26.699219 33.214844 26.867188 33.699219 27.117188 C 34.183594 27.367188 34.683594 27.582031 34.800781 27.601562 C 34.898438 27.617188 35.351562 27.816406 35.800781 28.015625 C 36.234375 28.234375 36.617188 28.417969 36.667969 28.417969 C 37.167969 28.484375 39.984375 30.015625 41.382812 30.964844 C 41.765625 31.234375 42.382812 31.601562 42.75 31.800781 C 43.117188 31.984375 43.566406 32.285156 43.734375 32.484375 C 43.898438 32.667969 44.367188 33.015625 44.734375 33.234375 C 45.515625 33.683594 47 35.199219 47 35.535156 C 47 35.851562 45.699219 38.101562 44.75 39.433594 C 43.898438 40.617188 41 43.667969 40.699219 43.667969 C 40.617188 43.667969 40.285156 43.898438 39.984375 44.183594 C 39.015625 45.082031 38.199219 45.566406 37.484375 45.648438 C 37.417969 45.667969 37.382812 45.785156 37.398438 45.933594 C 37.417969 46.234375 34.265625 47.75 32.417969 48.300781 C 30.167969 48.984375 29.734375 49.066406 28.464844 49.066406 C 27.75 49.066406 27.214844 49.101562 27.265625 49.148438 C 27.316406 49.199219 27.066406 49.382812 26.714844 49.550781 L 26.082031 49.832031 L 27.75 49.765625 C 29.632812 49.667969 31.984375 49.117188 34.183594 48.25 C 39.816406 46 44.234375 42.015625 47.214844 36.484375 L 47.800781 35.382812 L 46.632812 34.398438 C 45.984375 33.867188 45.214844 33.25 44.917969 33.050781 C 44.617188 32.851562 44.234375 32.5 44.050781 32.285156 C 43.882812 32.050781 43.617188 31.851562 43.484375 31.816406 C 42.964844 31.683594 40.515625 30.066406 40.367188 29.75 C 39.882812 28.765625 38.949219 26.367188 38.601562 25.234375 C 37.464844 21.515625 37.464844 21.550781 37.417969 16.300781 C 37.367188 12.117188 37.316406 11.183594 37.015625 9.75 C 36.449219 7.050781 36.132812 5.832031 36 5.832031 C 35.800781 5.832031 35.667969 6.316406 35.816406 6.417969 C 35.898438 6.449219 36 6.667969 36.050781 6.867188 C 36.082031 7.082031 36.25 7.765625 36.382812 8.417969 C 36.535156 9.050781 36.699219 9.714844 36.75 9.867188 C 37.015625 10.550781 36.515625 10.082031 35.964844 9.117188 C 34.933594 7.316406 32 1.515625 32 1.265625 C 32 0.964844 31.484375 0.667969 31.050781 0.683594 C 30.851562 0.699219 30.882812 0.734375 31.167969 0.816406 Z M 37.714844 23.050781 C 37.867188 23.699219 38 24.449219 38 24.699219 C 38 24.964844 38.066406 25.167969 38.148438 25.167969 C 38.234375 25.167969 38.417969 25.5 38.550781 25.898438 C 38.800781 26.632812 38.800781 26.648438 38.417969 26.898438 C 37.882812 27.25 37.601562 27.25 37.765625 26.867188 C 37.917969 26.515625 38.066406 25.332031 37.949219 25.332031 C 37.898438 25.332031 37.75 25.882812 37.601562 26.535156 C 37.449219 27.199219 37.265625 27.851562 37.183594 27.964844 C 37.082031 28.132812 36.699219 28.035156 35.484375 27.5 C 34.632812 27.117188 33.867188 26.765625 33.800781 26.734375 C 33.535156 26.566406 34.566406 24.566406 35.183594 24.082031 C 35.515625 23.800781 36.132812 23.183594 36.515625 22.714844 C 36.917969 22.234375 37.285156 21.832031 37.332031 21.832031 C 37.382812 21.832031 37.550781 22.382812 37.714844 23.050781 Z M 39.101562 27.367188 C 39.148438 27.582031 39.398438 28.148438 39.632812 28.632812 C 39.867188 29.101562 40.015625 29.535156 39.964844 29.582031 C 39.917969 29.632812 39.535156 29.484375 39.117188 29.234375 C 38.351562 28.816406 38.332031 28.785156 38.332031 28.015625 C 38.332031 27.582031 38.382812 27.167969 38.449219 27.117188 C 38.667969 26.882812 38.984375 27.015625 39.101562 27.367188 Z M 38.167969 28 C 38.167969 28.734375 38.132812 28.75 37.648438 28.484375 C 37.398438 28.367188 37.351562 28.214844 37.433594 27.949219 C 37.550781 27.582031 37.800781 27.332031 38.050781 27.332031 C 38.117188 27.332031 38.167969 27.632812 38.167969 28 Z M 38.167969 28 "/>
<path style=" stroke:none;fill-rule:nonzero;fill:rgb(0%,0%,0%);fill-opacity:1;" d="M 15.082031 1.964844 C 14.984375 2.035156 14.816406 2.265625 14.699219 2.5 C 14.582031 2.734375 14.265625 3.285156 13.964844 3.75 C 13.148438 5.066406 11.515625 8.382812 11.601562 8.535156 C 11.734375 8.734375 12.132812 8.382812 12.265625 7.949219 C 12.484375 7.234375 13.898438 4.398438 14.582031 3.332031 C 14.949219 2.734375 15.316406 2.148438 15.398438 2.035156 C 15.535156 1.816406 15.351562 1.765625 15.082031 1.964844 Z M 15.082031 1.964844 "/>
<path style=" stroke:none;fill-rule:nonzero;fill:rgb(0%,0%,0%);fill-opacity:1;" d="M 34.601562 1.964844 C 34.851562 2.117188 35.265625 3.550781 35.433594 4.765625 C 35.5 5.398438 35.582031 5.632812 35.667969 5.433594 C 35.765625 5.132812 35.785156 5.132812 36.082031 5.433594 C 36.382812 5.75 36.398438 5.75 36.265625 5.417969 C 36.199219 5.234375 36.050781 4.851562 35.964844 4.582031 C 35.882812 4.300781 35.699219 3.851562 35.582031 3.582031 C 35.464844 3.300781 35.300781 2.851562 35.234375 2.582031 C 35.117188 2.082031 34.898438 1.832031 34.582031 1.832031 C 34.5 1.832031 34.5 1.898438 34.601562 1.964844 Z M 34.601562 1.964844 "/>
<path style=" stroke:none;fill-rule:nonzero;fill:rgb(0%,0%,0%);fill-opacity:1;" d="M 25.75 2.667969 C 25.683594 2.785156 25.484375 2.832031 25.316406 2.785156 C 25.082031 2.714844 24.816406 3 24.117188 4.066406 C 22.898438 5.917969 22.898438 5.917969 23.183594 5.75 C 23.316406 5.667969 23.566406 5.398438 23.75 5.167969 C 23.933594 4.933594 24.515625 4.285156 25.066406 3.699219 C 25.601562 3.132812 26.015625 2.617188 25.964844 2.566406 C 25.917969 2.515625 25.816406 2.566406 25.75 2.667969 Z M 25.75 2.667969 "/>
<path style=" stroke:none;fill-rule:nonzero;fill:rgb(0%,0%,0%);fill-opacity:1;" d="M 12.449219 3.285156 C 11.550781 3.785156 11.050781 4.648438 10.25 7.167969 C 9.699219 8.867188 9.714844 8.785156 9.898438 8.867188 C 9.964844 8.882812 10.167969 8.382812 10.332031 7.714844 C 10.515625 7.066406 10.949219 5.882812 11.332031 5.101562 C 11.898438 3.882812 12.101562 3.617188 12.667969 3.332031 C 13.035156 3.148438 13.332031 2.949219 13.332031 2.917969 C 13.332031 2.800781 13.316406 2.800781 12.449219 3.285156 Z M 12.449219 3.285156 "/>
<path style=" stroke:none;fill-rule:nonzero;fill:rgb(0%,0%,0%);fill-opacity:1;" d="M 38.5 3.898438 C 38.5 3.933594 39.050781 4.367188 39.714844 4.851562 C 40.367188 5.332031 40.816406 5.617188 40.699219 5.464844 C 40.464844 5.183594 38.5 3.765625 38.5 3.898438 Z M 38.5 3.898438 "/>
<path style=" stroke:none;fill-rule:nonzero;fill:rgb(0%,0%,0%);fill-opacity:1;" d="M 10.082031 4.882812 C 8.917969 5.816406 8.285156 6.382812 7.25 7.417969 C 6.316406 8.351562 5.917969 8.800781 5.101562 9.800781 C 4.933594 10 4.699219 10.601562 4.582031 11.132812 C 4.183594 12.933594 3.332031 14.832031 2.917969 14.832031 C 2.566406 14.832031 2.601562 14.285156 2.964844 13.816406 C 3.265625 13.433594 3.398438 12.832031 3.183594 12.832031 C 3.117188 12.832031 2.765625 13.484375 2.382812 14.285156 C 1.816406 15.464844 1.734375 15.765625 1.933594 15.800781 C 2.300781 15.882812 2.417969 15.714844 2.167969 15.417969 C 1.984375 15.199219 2.050781 15.167969 2.699219 15.167969 C 3.398438 15.167969 3.449219 15.199219 3.785156 15.867188 L 4.132812 16.582031 L 4.132812 16.035156 C 4.117188 15.75 4.050781 15.5 3.984375 15.5 C 3.714844 15.5 3.648438 14.832031 3.882812 14.382812 C 4.015625 14.132812 4.398438 13.082031 4.75 12.082031 C 5.082031 11.066406 5.433594 10.183594 5.515625 10.082031 C 5.601562 10 5.667969 9.800781 5.667969 9.632812 C 5.667969 9.183594 5.964844 9.265625 6.933594 10 C 7.417969 10.367188 7.898438 10.667969 8 10.667969 C 8.316406 10.667969 8.167969 11.484375 7.484375 13.582031 C 7.066406 14.851562 6.601562 15.917969 6.316406 16.285156 C 5.964844 16.699219 5.882812 16.933594 6.015625 17.015625 C 6.132812 17.082031 6.167969 17.300781 6.101562 17.566406 C 6.015625 17.882812 5.917969 17.964844 5.699219 17.882812 C 5.449219 17.785156 5.449219 17.800781 5.648438 18.050781 C 5.898438 18.367188 5.933594 18.214844 5.082031 20.898438 C 4.648438 22.265625 4.550781 23.367188 4.816406 24.050781 C 4.984375 24.464844 4.800781 25.015625 4.601562 24.699219 C 4.550781 24.601562 4.101562 24.332031 3.617188 24.101562 C 2.632812 23.632812 1.199219 22.800781 1.132812 22.667969 C 1.082031 22.550781 2.382812 20.832031 2.535156 20.832031 C 2.601562 20.832031 2.667969 20.75 2.667969 20.667969 C 2.667969 20.566406 2.535156 20.5 2.367188 20.5 C 2.214844 20.5 1.800781 20.300781 1.449219 20.066406 C 0.964844 19.75 0.851562 19.566406 0.917969 19.316406 C 1.035156 18.949219 0.75 18.882812 0.601562 19.25 C 0.449219 19.648438 0.632812 19.917969 1.332031 20.316406 C 1.699219 20.515625 2 20.734375 2 20.800781 C 2 20.867188 1.75 21.214844 1.449219 21.566406 C 0.765625 22.367188 0.285156 22.332031 0.433594 21.5 C 0.5 21.234375 0.484375 21 0.398438 21 C 0.316406 21 0.234375 21.316406 0.199219 21.699219 C 0.148438 22.484375 0.183594 22.515625 1.832031 23.632812 C 2.75 24.25 3.617188 24.667969 4.582031 24.964844 C 4.933594 25.066406 5.101562 25.234375 5.132812 25.515625 C 5.148438 25.734375 5.285156 26.285156 5.398438 26.75 C 5.882812 28.433594 5.816406 30.035156 5.316406 28.933594 C 5.214844 28.714844 4.984375 28.484375 4.816406 28.449219 C 4.382812 28.332031 4.398438 27.5 4.851562 26.933594 C 5.035156 26.699219 5.132812 26.417969 5.082031 26.332031 C 5.015625 26.234375 4.667969 26.582031 4.300781 27.117188 L 3.632812 28.066406 L 4.015625 28.367188 C 4.234375 28.515625 4.601562 28.800781 4.832031 28.984375 C 5.066406 29.148438 5.484375 29.734375 5.75 30.265625 C 6.015625 30.785156 6.25 31.148438 6.285156 31.066406 C 6.382812 30.699219 7 26.632812 6.984375 26.367188 C 6.949219 25.816406 6.5 27.75 6.398438 28.898438 C 6.25 30.285156 6.066406 29.984375 5.898438 28.117188 L 5.800781 26.882812 L 6.484375 26.199219 C 7.601562 25.101562 9.082031 22.949219 10.132812 20.917969 C 10.550781 20.117188 10.582031 20.183594 10.25 21.265625 C 9.816406 22.75 9.199219 26.867188 9.066406 29.117188 C 9 30.316406 8.917969 31.367188 8.851562 31.449219 C 8.632812 31.734375 7.683594 32.316406 7.617188 32.199219 C 7.582031 32.132812 7.683594 30.882812 7.867188 29.417969 C 8.050781 27.949219 8.25 26.285156 8.316406 25.699219 C 8.535156 23.785156 8.199219 24.882812 7.851562 27.25 C 7.351562 30.433594 7.183594 31.148438 6.800781 31.535156 C 6.398438 31.933594 6.648438 32.367188 7.082031 32 C 7.300781 31.816406 7.332031 31.851562 7.332031 32.199219 C 7.332031 32.417969 7.25 32.683594 7.148438 32.785156 C 7.035156 32.898438 7.035156 33 7.132812 33.066406 C 7.214844 33.117188 7.417969 32.984375 7.566406 32.765625 C 7.699219 32.535156 8 32.300781 8.199219 32.25 C 8.417969 32.183594 8.785156 31.933594 9.050781 31.699219 C 9.300781 31.464844 9.5 31.316406 9.5 31.382812 C 9.5 31.484375 11.949219 30.015625 12.816406 29.398438 C 13.035156 29.25 13.699219 28.867188 14.285156 28.550781 C 14.867188 28.234375 15.484375 27.882812 15.632812 27.75 C 15.785156 27.617188 16.101562 27.367188 16.332031 27.183594 C 16.667969 26.898438 16.699219 26.851562 16.464844 26.832031 C 16.300781 26.832031 16.167969 26.917969 16.167969 27.015625 C 16.167969 27.117188 16.050781 27.148438 15.917969 27.101562 C 15.765625 27.050781 15.617188 27.117188 15.550781 27.265625 C 15.464844 27.5 15.199219 27.667969 13.5 28.601562 C 13.148438 28.785156 12.75 29.035156 12.601562 29.148438 C 12.167969 29.515625 9.285156 31.183594 9.214844 31.117188 C 9.082031 30.984375 9.683594 25.648438 10.082031 23.417969 C 10.515625 21 10.867188 19.683594 11.5 18.25 C 12.101562 16.867188 12.316406 16.183594 12.183594 16.082031 C 12.101562 16.050781 11.867188 16.464844 11.667969 17.050781 C 11.035156 18.816406 9.800781 21.167969 8.433594 23.214844 C 7.714844 24.300781 7.101562 25.167969 7.066406 25.117188 C 6.984375 25.035156 7.984375 22.515625 8.550781 21.382812 C 9.117188 20.265625 9.765625 18.351562 10.183594 16.582031 C 10.367188 15.75 10.785156 14.25 11.082031 13.25 C 11.898438 10.5 12.199219 9.082031 11.898438 9.367188 C 11.785156 9.5 10.867188 12.785156 9.917969 16.449219 C 9.265625 19 8.382812 21.515625 8.015625 21.882812 C 7.949219 21.949219 7.949219 21.582031 8.015625 21.050781 C 8.082031 20.515625 8.167969 19.316406 8.183594 18.398438 C 8.199219 16.566406 8.550781 13.199219 8.816406 12 C 8.964844 11.316406 8.949219 11 8.75 11.183594 C 8.714844 11.234375 8.515625 12.167969 8.332031 13.265625 C 8.101562 14.699219 7.816406 15.683594 7.316406 16.832031 C 6.167969 19.484375 5.5 21.933594 5.300781 24.332031 C 5.25 24.851562 5.214844 24.785156 5.050781 23.898438 C 4.898438 23.082031 4.898438 22.667969 5.066406 21.898438 C 5.300781 20.851562 6.484375 17.167969 7.734375 13.550781 C 8.148438 12.332031 8.5 11.234375 8.5 11.082031 C 8.5 10.933594 8.632812 10.351562 8.816406 9.785156 C 8.984375 9.214844 9.25 8.066406 9.398438 7.25 C 9.566406 6.417969 9.800781 5.667969 9.933594 5.566406 C 10.066406 5.464844 10.167969 5.316406 10.167969 5.25 C 10.167969 5.167969 10.332031 4.933594 10.535156 4.714844 C 11.035156 4.183594 10.867188 4.234375 10.082031 4.882812 Z M 9.035156 7.433594 C 8.898438 7.683594 8.851562 7.632812 8.75 7.183594 C 8.683594 6.832031 8.714844 6.566406 8.867188 6.382812 C 9.050781 6.148438 9.082031 6.167969 9.132812 6.632812 C 9.167969 6.917969 9.117188 7.285156 9.035156 7.433594 Z M 8.417969 7.617188 C 9.117188 7.949219 9.117188 8.332031 8.417969 8.535156 C 8.148438 8.617188 7.683594 8.75 7.398438 8.832031 C 7.066406 8.949219 6.734375 8.949219 6.484375 8.851562 C 6.101562 8.699219 6.101562 8.699219 6.699219 8.433594 C 7.050781 8.285156 7.433594 8.167969 7.566406 8.167969 C 7.699219 8.167969 7.867188 8.082031 7.933594 7.984375 C 8 7.851562 7.933594 7.832031 7.683594 7.917969 C 7.398438 8 7.332031 7.949219 7.332031 7.683594 C 7.332031 7.265625 7.632812 7.25 8.417969 7.617188 Z M 8.75 9.199219 C 8.683594 9.5 8.566406 9.816406 8.5 9.898438 C 8.417969 9.984375 8.398438 10.148438 8.449219 10.285156 C 8.535156 10.484375 8.464844 10.515625 8.148438 10.417969 C 7.617188 10.25 7.550781 10.183594 7.433594 9.566406 C 7.332031 9.101562 7.367188 9.035156 7.867188 8.882812 C 8.800781 8.582031 8.867188 8.601562 8.75 9.199219 Z M 7.933594 18.199219 C 7.734375 22.300781 7.285156 24.367188 6.234375 26.015625 L 5.765625 26.75 L 5.632812 26.167969 C 5.484375 25.449219 5.617188 23.5 5.933594 21.917969 C 6.214844 20.484375 6.367188 19.964844 6.882812 18.632812 C 7.101562 18.050781 7.417969 17.234375 7.566406 16.785156 C 7.734375 16.351562 7.898438 16 7.949219 16 C 8 16 7.984375 17 7.933594 18.199219 Z M 7.933594 18.199219 "/>
<path style=" stroke:none;fill-rule:nonzero;fill:rgb(0%,0%,0%);fill-opacity:1;" d="M 40 6.832031 C 40 7.148438 40.117188 8.351562 40.265625 9.5 C 40.398438 10.648438 40.582031 12.183594 40.667969 12.917969 C 40.765625 13.648438 40.832031 15.433594 40.832031 16.867188 C 40.832031 18.515625 40.898438 19.5 41 19.5 C 41.132812 19.5 41.300781 14.984375 41.167969 14.417969 C 41.148438 14.316406 41.117188 13.714844 41.082031 13.082031 C 41.050781 12.433594 40.964844 11.785156 40.898438 11.617188 C 40.851562 11.464844 40.832031 10.964844 40.882812 10.535156 C 40.949219 9.964844 40.933594 9.867188 40.832031 10.167969 C 40.714844 10.515625 40.683594 10.464844 40.699219 9.832031 C 40.699219 9.417969 40.617188 8.515625 40.5 7.832031 C 40.285156 6.464844 40 5.898438 40 6.832031 Z M 40 6.832031 "/>
<path style=" stroke:none;fill-rule:nonzero;fill:rgb(0%,0%,0%);fill-opacity:1;" d="M 41.898438 6.667969 C 42.066406 6.949219 42.167969 7.601562 42.183594 8.699219 C 42.234375 10.933594 42.5 11.167969 42.5 9 L 42.515625 7.25 L 43 7.800781 C 43.417969 8.25 43.5 8.484375 43.515625 9.214844 C 43.515625 9.898438 43.550781 10 43.667969 9.699219 C 43.867188 9.234375 44.101562 9.234375 44.351562 9.683594 C 44.5 9.964844 44.785156 13.617188 44.832031 15.949219 C 44.832031 16.367188 45.082031 16.464844 45.214844 16.117188 C 45.265625 16 45.214844 15.484375 45.132812 14.984375 C 45.015625 14.332031 45.035156 13.851562 45.183594 13.199219 C 45.367188 12.398438 45.367188 12.316406 45.066406 12.101562 C 44.667969 11.800781 44.785156 11.667969 45.332031 11.785156 C 45.566406 11.816406 45.917969 12.101562 46.117188 12.417969 C 46.484375 12.964844 47.367188 13.648438 47.066406 13.132812 C 46.035156 11.382812 44.183594 8.882812 43.066406 7.714844 C 42.285156 6.917969 41.765625 6.433594 41.898438 6.667969 Z M 41.898438 6.667969 "/>
<path style=" stroke:none;fill-rule:nonzero;fill:rgb(0%,0%,0%);fill-opacity:1;" d="M 15.199219 10.882812 C 14.667969 12.300781 14.464844 13.132812 14.167969 15.417969 C 13.265625 22.035156 13.199219 22.667969 13.484375 22.167969 C 13.566406 22.035156 13.832031 20.382812 14.066406 18.5 C 14.601562 14.433594 15.035156 12.214844 15.566406 10.75 C 15.785156 10.148438 15.898438 9.632812 15.832031 9.582031 C 15.765625 9.550781 15.484375 10.117188 15.199219 10.882812 Z M 15.199219 10.882812 "/>
<path style=" stroke:none;fill-rule:nonzero;fill:rgb(0%,0%,0%);fill-opacity:1;" d="M 30.917969 10.566406 C 29.765625 10.785156 28.214844 11.433594 28.398438 11.617188 C 28.449219 11.667969 28.851562 11.617188 29.285156 11.5 C 31.617188 10.898438 34.214844 10.601562 35.382812 10.800781 C 36.550781 10.984375 36.765625 10.933594 36.066406 10.648438 C 35.367188 10.351562 32.285156 10.316406 30.917969 10.566406 Z M 30.917969 10.566406 "/>
<path style=" stroke:none;fill-rule:nonzero;fill:rgb(0%,0%,0%);fill-opacity:1;" d="M 43.601562 16.832031 C 43.648438 20.183594 43.734375 23.214844 43.816406 23.582031 C 43.964844 24.25 43.964844 24.234375 44 23.25 L 44.035156 22.25 L 44.234375 22.816406 C 44.351562 23.132812 44.550781 23.433594 44.683594 23.484375 C 44.882812 23.535156 44.882812 23.515625 44.699219 23.285156 C 44.167969 22.648438 43.832031 20.015625 43.816406 16.332031 C 43.800781 14.367188 43.734375 12.300781 43.667969 11.75 C 43.582031 11.167969 43.550781 13.300781 43.601562 16.832031 Z M 43.601562 16.832031 "/>
<path style=" stroke:none;fill-rule:nonzero;fill:rgb(0%,0%,0%);fill-opacity:1;" d="M 42.285156 13.367188 C 42.199219 14.898438 42.214844 15.433594 42.367188 15.535156 C 42.535156 15.632812 42.535156 15.667969 42.382812 15.667969 C 42.234375 15.667969 42.183594 15.917969 42.199219 16.449219 C 42.214844 17.066406 42.234375 17.117188 42.285156 16.699219 C 42.316406 16.417969 42.417969 16.167969 42.484375 16.167969 C 42.601562 16.167969 42.550781 11.5 42.433594 11.367188 C 42.398438 11.351562 42.332031 12.25 42.285156 13.367188 Z M 42.285156 13.367188 "/>
<path style=" stroke:none;fill-rule:nonzero;fill:rgb(0%,0%,0%);fill-opacity:1;" d="M 13.035156 12.050781 C 12.933594 12.25 12.617188 12.917969 12.351562 13.550781 C 12.082031 14.167969 11.699219 14.882812 11.515625 15.148438 C 11.316406 15.417969 11.167969 15.699219 11.167969 15.785156 C 11.167969 15.851562 11.332031 15.667969 11.515625 15.367188 C 11.714844 15.082031 11.933594 14.832031 12.035156 14.832031 C 12.117188 14.832031 12.148438 14.765625 12.082031 14.683594 C 12.035156 14.601562 12.066406 14.484375 12.148438 14.433594 C 12.234375 14.367188 12.332031 14.449219 12.367188 14.617188 C 12.398438 14.765625 12.617188 14.199219 12.867188 13.332031 C 13.332031 11.765625 13.382812 11.351562 13.035156 12.050781 Z M 13.035156 12.050781 "/>
<path style=" stroke:none;fill-rule:nonzero;fill:rgb(0%,0%,0%);fill-opacity:1;" d="M 30.382812 12.351562 C 29.882812 13.082031 30.066406 13.199219 30.683594 12.535156 C 31.265625 11.917969 31.167969 11.933594 32.949219 12.234375 C 34.25 12.464844 35.515625 12.964844 35.75 13.332031 C 35.867188 13.535156 36.167969 13.566406 36.167969 13.367188 C 36.167969 13.199219 35.015625 12.566406 34.148438 12.25 C 33.75 12.117188 32.816406 11.949219 32.082031 11.898438 L 30.75 11.800781 Z M 30.382812 12.351562 "/>
<path style=" stroke:none;fill-rule:nonzero;fill:rgb(0%,0%,0%);fill-opacity:1;" d="M 17.699219 13.351562 C 17.101562 14.949219 16.464844 17.351562 16.167969 19.167969 C 15.933594 20.632812 15.550781 22.582031 15.382812 23.167969 C 15.285156 23.535156 15.316406 23.550781 15.535156 23.367188 C 15.683594 23.25 15.867188 22.617188 15.984375 21.867188 C 16.464844 18.816406 17.050781 16.199219 17.683594 14.316406 C 18.464844 11.949219 18.464844 11.316406 17.699219 13.351562 Z M 17.699219 13.351562 "/>
<path style=" stroke:none;fill-rule:nonzero;fill:rgb(0%,0%,0%);fill-opacity:1;" d="M 5.464844 12.417969 C 5.417969 12.484375 5.449219 12.734375 5.550781 13 C 5.699219 13.382812 5.683594 13.601562 5.449219 14.082031 C 5.300781 14.417969 5.167969 14.785156 5.167969 14.917969 C 5.167969 15.066406 5.082031 15.316406 4.984375 15.484375 C 4.816406 15.734375 4.851562 15.851562 5.148438 16.148438 C 5.367188 16.367188 5.5 16.417969 5.5 16.285156 C 5.5 16.167969 5.417969 15.984375 5.316406 15.882812 C 5.117188 15.683594 5.25 15.332031 5.5 15.332031 C 5.582031 15.332031 5.617188 15.464844 5.550781 15.617188 C 5.464844 15.867188 5.5 15.882812 5.667969 15.714844 C 5.832031 15.550781 5.851562 15.464844 5.683594 15.265625 C 5.535156 15.082031 5.515625 14.933594 5.667969 14.683594 C 5.765625 14.484375 5.816406 14.332031 5.765625 14.332031 C 5.714844 14.332031 5.75 14.117188 5.851562 13.867188 C 5.964844 13.535156 5.949219 13.25 5.785156 12.867188 C 5.667969 12.566406 5.515625 12.367188 5.464844 12.417969 Z M 5.464844 12.417969 "/>
<path style=" stroke:none;fill-rule:nonzero;fill:rgb(0%,0%,0%);fill-opacity:1;" d="M 27.050781 12.867188 C 26.566406 13.449219 26.167969 14.632812 26.167969 15.535156 C 26.167969 16.066406 26.234375 16.5 26.332031 16.5 C 26.433594 16.5 26.5 16.066406 26.5 15.515625 C 26.5 14.800781 26.617188 14.351562 26.917969 13.75 C 27.351562 12.964844 27.417969 12.417969 27.050781 12.867188 Z M 27.050781 12.867188 "/>
<path style=" stroke:none;fill-rule:nonzero;fill:rgb(0%,0%,0%);fill-opacity:1;" d="M 31.566406 12.984375 C 30.535156 13.332031 29.683594 13.816406 29.433594 14.199219 C 29.183594 14.601562 29.800781 15.214844 31.117188 15.867188 C 32.082031 16.332031 32.265625 16.367188 33.300781 16.285156 C 34.449219 16.167969 36.148438 15.464844 36.300781 15.035156 C 36.398438 14.734375 34.917969 13.316406 34.132812 12.949219 C 33.382812 12.601562 32.667969 12.601562 31.566406 12.984375 Z M 33.667969 13.199219 C 33.667969 13.300781 33.714844 13.332031 33.785156 13.285156 C 34.015625 13.035156 34.351562 14.101562 34.25 14.785156 C 34.101562 15.785156 33.515625 16.035156 32 15.734375 C 31.082031 15.535156 30.734375 14.132812 31.433594 13.433594 C 31.832031 13.015625 31.984375 13.117188 31.785156 13.648438 C 31.648438 14.015625 31.648438 14.25 31.800781 14.566406 C 32.148438 15.332031 33.351562 15.332031 33.464844 14.566406 C 33.515625 14.265625 33.5 14.265625 33.332031 14.535156 C 33.050781 14.984375 32.183594 14.933594 32.015625 14.449219 C 31.832031 13.964844 31.933594 13.765625 32.449219 13.484375 C 32.832031 13.285156 32.898438 13.300781 33.183594 13.648438 C 33.417969 13.933594 33.5 13.964844 33.5 13.785156 C 33.5 13.632812 33.433594 13.464844 33.332031 13.417969 C 33.082031 13.265625 33.132812 13 33.417969 13 C 33.550781 13 33.667969 13.082031 33.667969 13.199219 Z M 30.898438 14.535156 C 30.984375 15.066406 30.964844 15.332031 30.832031 15.332031 C 30.550781 15.332031 30.449219 14.882812 30.582031 14.234375 C 30.714844 13.5 30.765625 13.535156 30.898438 14.535156 Z M 30.332031 14.148438 C 30.332031 14.234375 30.285156 14.433594 30.234375 14.566406 C 30.148438 14.785156 30.066406 14.800781 29.898438 14.648438 C 29.734375 14.515625 29.714844 14.417969 29.882812 14.25 C 30.117188 13.984375 30.332031 13.933594 30.332031 14.148438 Z M 35.132812 14.632812 C 35.167969 14.984375 35.082031 15.25 34.851562 15.484375 C 34.417969 15.917969 34.082031 15.949219 34.25 15.535156 C 34.316406 15.382812 34.417969 15.066406 34.449219 14.832031 C 34.582031 14.117188 34.667969 13.964844 34.882812 14.035156 C 34.984375 14.082031 35.101562 14.351562 35.132812 14.632812 Z M 35.132812 14.632812 "/>
<path style=" stroke:none;fill-rule:nonzero;fill:rgb(0%,0%,0%);fill-opacity:1;" d="M 32.5 13.984375 C 32.5 14.183594 32.601562 14.332031 32.765625 14.332031 C 32.917969 14.332031 33 14.214844 32.964844 14.050781 C 32.882812 13.632812 32.5 13.582031 32.5 13.984375 Z M 32.5 13.984375 "/>
<path style=" stroke:none;fill-rule:nonzero;fill:rgb(0%,0%,0%);fill-opacity:1;" d="M 28.015625 13.734375 C 27.75 14.148438 27.667969 14.566406 27.667969 15.398438 C 27.667969 16 27.734375 16.5 27.816406 16.5 C 27.917969 16.5 27.984375 16.015625 27.984375 15.417969 C 27.984375 14.582031 28.066406 14.214844 28.332031 13.851562 C 28.515625 13.582031 28.601562 13.316406 28.515625 13.265625 C 28.433594 13.199219 28.199219 13.417969 28.015625 13.734375 Z M 28.015625 13.734375 "/>
<path style=" stroke:none;fill-rule:nonzero;fill:rgb(0%,0%,0%);fill-opacity:1;" d="M 29.667969 15.898438 C 29.667969 16.148438 31.101562 17.5 31.351562 17.5 C 31.667969 17.5 31.449219 17.214844 30.582031 16.449219 C 30.035156 15.964844 29.667969 15.75 29.667969 15.898438 Z M 29.667969 15.898438 "/>
<path style=" stroke:none;fill-rule:nonzero;fill:rgb(0%,0%,0%);fill-opacity:1;" d="M 17.984375 17.082031 C 17.785156 17.785156 17.550781 18.382812 17.464844 18.433594 C 17.398438 18.484375 17.332031 18.648438 17.332031 18.800781 C 17.351562 18.964844 17.5 18.800781 17.683594 18.449219 C 17.867188 18.117188 18.035156 17.832031 18.066406 17.832031 C 18.101562 17.832031 18.082031 18.199219 18.035156 18.648438 C 17.984375 19.199219 18.035156 19.5 18.167969 19.582031 C 18.316406 19.683594 18.351562 19.648438 18.265625 19.515625 C 18.183594 19.398438 18.214844 18.566406 18.332031 17.648438 C 18.449219 16.734375 18.5 15.949219 18.449219 15.898438 C 18.398438 15.851562 18.199219 16.382812 17.984375 17.082031 Z M 17.984375 17.082031 "/>
<path style=" stroke:none;fill-rule:nonzero;fill:rgb(0%,0%,0%);fill-opacity:1;" d="M 3.199219 16.484375 C 3.5 16.75 3.785156 16.933594 3.832031 16.882812 C 3.933594 16.785156 3.050781 16 2.816406 16 C 2.734375 16 2.898438 16.214844 3.199219 16.484375 Z M 3.199219 16.484375 "/>
<path style=" stroke:none;fill-rule:nonzero;fill:rgb(0%,0%,0%);fill-opacity:1;" d="M 1.582031 16.332031 C 1.632812 16.417969 1.617188 16.5 1.550781 16.5 C 1.464844 16.5 1.316406 16.816406 1.214844 17.199219 C 1.101562 17.601562 1 18.035156 0.949219 18.167969 C 0.917969 18.300781 0.917969 18.367188 0.949219 18.285156 C 1 18.214844 1.234375 18.167969 1.5 18.167969 C 2 18.167969 2.214844 17.867188 1.984375 17.484375 C 1.898438 17.351562 1.832031 17 1.832031 16.699219 C 1.832031 16.417969 1.75 16.167969 1.648438 16.167969 C 1.566406 16.167969 1.535156 16.234375 1.582031 16.332031 Z M 1.582031 16.332031 "/>
<path style=" stroke:none;fill-rule:nonzero;fill:rgb(0%,0%,0%);fill-opacity:1;" d="M 35.101562 16.851562 C 34.550781 17.199219 34.015625 17.5 33.882812 17.5 C 33.765625 17.5 33.667969 17.582031 33.667969 17.683594 C 33.667969 17.785156 33.816406 17.816406 34.050781 17.75 C 34.566406 17.601562 36.234375 16.566406 36.300781 16.351562 C 36.398438 16.050781 36.132812 16.148438 35.101562 16.851562 Z M 35.101562 16.851562 "/>
<path style=" stroke:none;fill-rule:nonzero;fill:rgb(0%,0%,0%);fill-opacity:1;" d="M 48.183594 16.550781 C 48.082031 16.816406 48 17.082031 48 17.148438 C 48 17.234375 47.882812 17.398438 47.714844 17.515625 C 47.515625 17.699219 47.433594 17.699219 47.382812 17.550781 C 47.234375 17.132812 46.699219 16.582031 46.566406 16.714844 C 46.484375 16.785156 46.535156 16.917969 46.667969 17 C 46.800781 17.101562 46.851562 17.167969 46.75 17.167969 C 46.667969 17.167969 46.699219 17.25 46.832031 17.351562 C 47.050781 17.5 47.035156 17.515625 46.800781 17.433594 C 46.265625 17.265625 46.332031 17.632812 46.867188 17.984375 C 47.214844 18.199219 47.464844 18.265625 47.566406 18.167969 C 47.800781 17.933594 48.265625 17.964844 48.484375 18.234375 C 48.648438 18.433594 48.632812 18.566406 48.433594 18.882812 C 48.285156 19.101562 48.214844 19.332031 48.285156 19.382812 C 48.332031 19.449219 48.234375 19.5 48.035156 19.5 C 47.582031 19.5 47.550781 19.933594 47.984375 20.167969 C 48.449219 20.398438 48.714844 20.367188 48.601562 20.082031 C 48.5 19.785156 48.765625 18.964844 49.050781 18.800781 C 49.183594 18.714844 49.117188 18.316406 48.800781 17.382812 C 48.382812 16.117188 48.367188 16.101562 48.183594 16.550781 Z M 48.183594 16.550781 "/>
<path style=" stroke:none;fill-rule:nonzero;fill:rgb(0%,0%,0%);fill-opacity:1;" d="M 4.265625 17.285156 C 4.265625 17.632812 4.367188 18.234375 4.449219 18.601562 C 4.566406 19.066406 4.566406 19.382812 4.449219 19.601562 C 4.351562 19.765625 4.265625 20.132812 4.265625 20.398438 C 4.25 20.785156 4.148438 20.933594 3.832031 21.015625 C 3.535156 21.082031 3.484375 21.148438 3.667969 21.214844 C 3.800781 21.285156 4.066406 21.300781 4.25 21.265625 C 4.667969 21.199219 5.050781 19.617188 4.917969 18.464844 C 4.851562 17.933594 4.882812 17.667969 5.035156 17.617188 C 5.167969 17.566406 5.132812 17.515625 4.964844 17.515625 C 4.765625 17.5 4.667969 17.367188 4.667969 17.082031 C 4.667969 16.851562 4.566406 16.667969 4.449219 16.667969 C 4.316406 16.667969 4.25 16.882812 4.265625 17.285156 Z M 4.265625 17.285156 "/>
<path style=" stroke:none;fill-rule:nonzero;fill:rgb(0%,0%,0%);fill-opacity:1;" d="M 45 18.300781 C 45 19.214844 45.082031 20.367188 45.183594 20.832031 C 45.351562 21.582031 45.332031 21.734375 45.066406 22.015625 C 44.898438 22.199219 44.867188 22.332031 44.964844 22.332031 C 45.082031 22.332031 45.167969 22.25 45.167969 22.167969 C 45.167969 22.066406 45.316406 22 45.5 22 C 45.683594 22 45.832031 21.917969 45.832031 21.832031 C 45.832031 21.734375 45.75 21.667969 45.648438 21.667969 C 45.535156 21.667969 45.5 21.5 45.535156 21.25 C 45.582031 21.015625 45.550781 20.785156 45.484375 20.734375 C 45.265625 20.601562 45.300781 20.035156 45.550781 19.949219 C 45.699219 19.882812 45.699219 19.832031 45.535156 19.699219 C 45.398438 19.617188 45.285156 19.015625 45.234375 18.167969 C 45.199219 17.398438 45.117188 16.734375 45.082031 16.683594 C 45.035156 16.648438 45 17.367188 45 18.300781 Z M 45 18.300781 "/>
<path style=" stroke:none;fill-rule:nonzero;fill:rgb(0%,0%,0%);fill-opacity:1;" d="M 39.582031 19.25 C 39.734375 21.851562 40.785156 27.816406 40.816406 26.25 C 40.816406 26.066406 40.632812 24.832031 40.417969 23.5 C 40.183594 22.167969 39.949219 20.367188 39.882812 19.5 C 39.832031 18.632812 39.714844 17.800781 39.632812 17.667969 C 39.535156 17.515625 39.515625 18.101562 39.582031 19.25 Z M 39.582031 19.25 "/>
<path style=" stroke:none;fill-rule:nonzero;fill:rgb(0%,0%,0%);fill-opacity:1;" d="M 3.082031 18.214844 L 2.582031 18.398438 L 3.167969 18.5 C 3.566406 18.566406 3.734375 18.667969 3.683594 18.832031 C 3.464844 19.699219 3.464844 19.832031 3.75 19.832031 C 4 19.832031 4.035156 19.714844 3.949219 19.066406 C 3.851562 18.117188 3.714844 18 3.082031 18.214844 Z M 3.082031 18.214844 "/>
<path style=" stroke:none;fill-rule:nonzero;fill:rgb(0%,0%,0%);fill-opacity:1;" d="M 1.167969 18.535156 C 1.167969 18.75 2.800781 19.667969 3.183594 19.667969 C 3.5 19.667969 3.167969 19.367188 2.714844 19.25 C 2.449219 19.199219 2 18.949219 1.714844 18.734375 C 1.351562 18.449219 1.167969 18.382812 1.167969 18.535156 Z M 1.167969 18.535156 "/>
<path style=" stroke:none;fill-rule:nonzero;fill:rgb(0%,0%,0%);fill-opacity:1;" d="M 46.332031 19.367188 C 46.332031 19.683594 46.367188 19.699219 46.5 19.5 C 46.601562 19.351562 46.667969 19.332031 46.667969 19.449219 C 46.667969 19.550781 46.601562 19.699219 46.5 19.75 C 46.417969 19.800781 46.332031 19.964844 46.332031 20.117188 C 46.332031 20.265625 46.199219 20.484375 46.050781 20.617188 C 45.785156 20.832031 45.785156 20.832031 46.167969 20.734375 C 46.785156 20.582031 47.648438 20 47.300781 20 C 46.933594 20 46.917969 19.683594 47.265625 19.550781 C 47.5 19.464844 47.464844 19.417969 47.148438 19.234375 C 46.566406 18.917969 46.332031 18.949219 46.332031 19.367188 Z M 46.332031 19.367188 "/>
<path style=" stroke:none;fill-rule:nonzero;fill:rgb(0%,0%,0%);fill-opacity:1;" d="M 49.117188 19.214844 C 49.066406 19.351562 49.101562 19.785156 49.199219 20.183594 C 49.300781 20.582031 49.367188 21.082031 49.351562 21.285156 C 49.351562 21.5 49.417969 21.667969 49.5 21.667969 C 49.867188 21.667969 49.632812 22.015625 49.132812 22.234375 C 48.683594 22.433594 48.648438 22.484375 48.949219 22.484375 C 49.300781 22.5 49.832031 22.117188 49.832031 21.832031 C 49.832031 21.566406 49.332031 19.117188 49.265625 19.050781 C 49.234375 19.015625 49.167969 19.101562 49.117188 19.214844 Z M 49.117188 19.214844 "/>
<path style=" stroke:none;fill-rule:nonzero;fill:rgb(0%,0%,0%);fill-opacity:1;" d="M 42.101562 22.417969 C 42.132812 24.148438 42.25 25.984375 42.398438 26.75 C 42.734375 28.566406 43.464844 31.515625 43.601562 31.648438 C 43.734375 31.765625 43.632812 31.148438 43.082031 28.5 C 42.617188 26.285156 42.484375 23.699219 42.699219 21.332031 C 42.785156 20.550781 42.765625 20.214844 42.667969 20.417969 C 42.582031 20.601562 42.515625 21.101562 42.515625 21.535156 C 42.5 21.964844 42.433594 22.351562 42.332031 22.417969 C 42.25 22.464844 42.148438 21.898438 42.117188 20.964844 C 42.082031 20.117188 42.066406 20.765625 42.101562 22.417969 Z M 42.101562 22.417969 "/>
<path style=" stroke:none;fill-rule:nonzero;fill:rgb(0%,0%,0%);fill-opacity:1;" d="M 14.785156 21.167969 C 14.714844 21.300781 14.566406 21.867188 14.417969 22.417969 C 14.265625 22.964844 14 23.867188 13.832031 24.417969 C 13.667969 24.964844 13.398438 25.984375 13.25 26.667969 C 13.101562 27.351562 12.933594 28.050781 12.898438 28.199219 C 12.851562 28.367188 12.882812 28.5 12.964844 28.5 C 13.050781 28.5 13.25 27.917969 13.417969 27.199219 C 13.582031 26.5 13.882812 25.351562 14.101562 24.667969 C 14.699219 22.683594 15.015625 21.316406 14.949219 21.117188 C 14.898438 20.984375 14.832031 21 14.785156 21.167969 Z M 14.785156 21.167969 "/>
<path style=" stroke:none;fill-rule:nonzero;fill:rgb(0%,0%,0%);fill-opacity:1;" d="M 11.601562 23.867188 C 10.601562 28.132812 10.367188 29.332031 10.515625 29.332031 C 10.601562 29.332031 10.699219 29.167969 10.734375 28.949219 C 11 27.734375 12.382812 21.714844 12.449219 21.535156 C 12.5 21.433594 12.464844 21.332031 12.367188 21.332031 C 12.265625 21.332031 11.933594 22.484375 11.601562 23.867188 Z M 11.601562 23.867188 "/>
<path style=" stroke:none;fill-rule:nonzero;fill:rgb(0%,0%,0%);fill-opacity:1;" d="M 46.515625 21.917969 C 46.714844 22.117188 48.667969 22.066406 48.882812 21.851562 C 48.964844 21.765625 48.535156 21.714844 47.699219 21.714844 C 46.832031 21.734375 46.417969 21.800781 46.515625 21.917969 Z M 46.515625 21.917969 "/>
<path style=" stroke:none;fill-rule:nonzero;fill:rgb(0%,0%,0%);fill-opacity:1;" d="M 17.351562 23.214844 C 17.148438 23.867188 16.75 24.851562 16.484375 25.382812 C 15.964844 26.398438 15.832031 26.867188 16.265625 26.167969 L 16.515625 25.75 L 16.398438 26.167969 C 16.316406 26.484375 16.351562 26.535156 16.5 26.398438 C 16.683594 26.214844 18 22.5 18 22.148438 C 18 22.066406 17.949219 22 17.882812 22 C 17.800781 22 17.566406 22.550781 17.351562 23.214844 Z M 17.351562 23.214844 "/>
<path style=" stroke:none;fill-rule:nonzero;fill:rgb(0%,0%,0%);fill-opacity:1;" d="M 23.5 22.515625 C 23.5 22.699219 23.566406 22.816406 23.648438 22.765625 C 23.734375 22.699219 23.832031 22.765625 23.882812 22.867188 C 24 23.234375 24.199219 22.882812 24.082031 22.515625 C 23.949219 22.066406 23.5 22.066406 23.5 22.515625 Z M 23.5 22.515625 "/>
<path style=" stroke:none;fill-rule:nonzero;fill:rgb(0%,0%,0%);fill-opacity:1;" d="M 46.199219 22.433594 C 46 22.566406 45.832031 22.832031 45.832031 23.015625 C 45.832031 23.183594 45.75 23.332031 45.648438 23.332031 C 45.566406 23.332031 45.535156 23.398438 45.582031 23.5 C 45.734375 23.75 46 23.699219 46 23.417969 C 46 23.285156 46.082031 23.167969 46.167969 23.167969 C 46.265625 23.167969 46.332031 23.066406 46.332031 22.933594 C 46.332031 22.816406 46.5 22.582031 46.714844 22.449219 C 46.984375 22.265625 47.015625 22.183594 46.832031 22.183594 C 46.683594 22.167969 46.398438 22.285156 46.199219 22.433594 Z M 46.199219 22.433594 "/>
<path style=" stroke:none;fill-rule:nonzero;fill:rgb(0%,0%,0%);fill-opacity:1;" d="M 25.167969 22.582031 C 25.167969 22.714844 25.25 22.832031 25.351562 22.832031 C 25.433594 22.832031 25.464844 22.933594 25.398438 23.035156 C 25.316406 23.183594 25.367188 23.183594 25.550781 23.015625 C 25.933594 22.714844 25.898438 22.332031 25.5 22.332031 C 25.316406 22.332031 25.167969 22.449219 25.167969 22.582031 Z M 25.167969 22.582031 "/>
<path style=" stroke:none;fill-rule:nonzero;fill:rgb(0%,0%,0%);fill-opacity:1;" d="M 47.449219 22.964844 C 47.285156 23.148438 47.214844 23.398438 47.285156 23.632812 C 47.351562 23.898438 47.300781 24 47.101562 24 C 46.785156 24 46.734375 23.734375 47.035156 23.632812 C 47.167969 23.582031 47.132812 23.515625 46.949219 23.449219 C 46.5 23.285156 46.449219 23.632812 46.882812 24.066406 C 47.117188 24.285156 47.714844 24.714844 48.234375 25 C 49.050781 25.464844 49.148438 25.582031 49.066406 25.933594 C 48.984375 26.285156 49.015625 26.332031 49.398438 26.332031 C 49.632812 26.332031 49.832031 26.285156 49.832031 26.234375 C 49.832031 25.949219 49.214844 25.148438 48.917969 25.066406 C 48.265625 24.851562 47.75 24.316406 47.734375 23.816406 C 47.714844 23.550781 47.75 23.300781 47.816406 23.265625 C 47.882812 23.214844 48.25 23.417969 48.648438 23.683594 C 49.050781 23.949219 49.433594 24.117188 49.5 24.082031 C 49.582031 24.035156 49.667969 24.101562 49.714844 24.199219 C 49.75 24.316406 49.851562 24.351562 49.933594 24.285156 C 50.015625 24.199219 49.949219 24.066406 49.785156 23.984375 C 49.484375 23.800781 49.382812 23.332031 49.667969 23.332031 C 49.765625 23.332031 49.832031 23.214844 49.832031 23.082031 C 49.832031 22.933594 49.734375 22.882812 49.582031 22.933594 C 49.449219 23 49.332031 23.167969 49.332031 23.332031 C 49.332031 23.515625 49.265625 23.699219 49.167969 23.75 C 49.082031 23.800781 49 23.785156 49 23.699219 C 49 23.632812 48.714844 23.433594 48.382812 23.265625 C 47.898438 23.035156 47.816406 22.933594 48.015625 22.816406 C 48.214844 22.699219 48.214844 22.667969 47.984375 22.667969 C 47.832031 22.667969 47.601562 22.800781 47.449219 22.964844 Z M 47.449219 22.964844 "/>
<path style=" stroke:none;fill-rule:nonzero;fill:rgb(0%,0%,0%);fill-opacity:1;" d="M 44.316406 24.285156 C 44.285156 25.433594 44.382812 26.265625 44.582031 26.5 C 44.765625 26.714844 45.050781 27.484375 45.082031 27.867188 C 45.082031 27.917969 45.132812 28.035156 45.214844 28.101562 C 45.285156 28.167969 45.332031 28.367188 45.332031 28.535156 C 45.332031 28.699219 45.449219 28.832031 45.601562 28.832031 C 45.765625 28.832031 45.800781 28.765625 45.714844 28.617188 C 45.648438 28.515625 45.566406 28.234375 45.550781 28 C 45.484375 27.234375 45.398438 26.734375 45.300781 26.582031 C 45.214844 26.433594 44.964844 25.417969 44.75 24.285156 C 44.699219 24.035156 44.582031 23.832031 44.5 23.832031 C 44.398438 23.832031 44.332031 24.035156 44.316406 24.285156 Z M 44.316406 24.285156 "/>
<path style=" stroke:none;fill-rule:nonzero;fill:rgb(0%,0%,0%);fill-opacity:1;" d="M 45.332031 24.050781 C 45.332031 24.167969 45.601562 24.699219 45.917969 25.234375 C 46.316406 25.917969 46.5 26.417969 46.515625 26.898438 C 46.515625 27.683594 47.082031 29.265625 47.183594 28.785156 C 47.25 28.484375 47.285156 28.5 47.667969 28.832031 C 47.898438 29.035156 48.066406 29.265625 48.050781 29.351562 C 48.015625 29.433594 48.199219 29.5 48.433594 29.5 C 48.667969 29.5 49 29.582031 49.183594 29.667969 C 49.550781 29.867188 49.582031 29.816406 49.75 28.683594 C 49.832031 28.050781 49.816406 27.984375 49.601562 28.148438 C 49.484375 28.25 49.398438 28.484375 49.449219 28.648438 C 49.515625 28.882812 49.417969 28.964844 49.015625 29.035156 C 48.734375 29.066406 48.484375 29.066406 48.464844 29 C 48.433594 28.949219 48.132812 28.734375 47.785156 28.515625 C 47.382812 28.285156 47.214844 28.082031 47.316406 28 C 47.449219 27.933594 47.398438 27.75 47.167969 27.464844 C 46.816406 27 46.714844 26.5 47 26.5 C 47.265625 26.5 47.199219 26.199219 46.867188 25.867188 C 46.5 25.5 46 24.464844 46 24.050781 C 46 23.800781 45.964844 23.785156 45.832031 24 C 45.734375 24.167969 45.667969 24.183594 45.667969 24.035156 C 45.667969 23.933594 45.601562 23.832031 45.5 23.832031 C 45.417969 23.832031 45.332031 23.933594 45.332031 24.050781 Z M 45.332031 24.050781 "/>
<path style=" stroke:none;fill-rule:nonzero;fill:rgb(0%,0%,0%);fill-opacity:1;" d="M 0.582031 26 C 0.535156 26.082031 0.582031 26.167969 0.714844 26.167969 C 0.851562 26.167969 1.050781 26.285156 1.167969 26.417969 C 1.285156 26.550781 1.449219 26.667969 1.535156 26.667969 C 1.75 26.667969 1.367188 26.199219 0.984375 25.984375 C 0.800781 25.882812 0.648438 25.898438 0.582031 26 Z M 0.582031 26 "/>
<path style=" stroke:none;fill-rule:nonzero;fill:rgb(0%,0%,0%);fill-opacity:1;" d="M 48 26.167969 L 47.417969 26.265625 L 47.964844 26.398438 C 48.316406 26.484375 48.601562 26.464844 48.699219 26.367188 C 48.933594 26.132812 48.667969 26.050781 48 26.167969 Z M 48 26.167969 "/>
<path style=" stroke:none;fill-rule:nonzero;fill:rgb(0%,0%,0%);fill-opacity:1;" d="M 0.167969 26.617188 C 0.167969 26.933594 0.25 27 0.714844 26.984375 C 1.234375 26.984375 1.234375 26.964844 0.832031 26.816406 C 0.617188 26.714844 0.367188 26.566406 0.300781 26.449219 C 0.214844 26.316406 0.167969 26.382812 0.167969 26.617188 Z M 0.167969 26.617188 "/>
<path style=" stroke:none;fill-rule:nonzero;fill:rgb(0%,0%,0%);fill-opacity:1;" d="M 1.832031 27.050781 C 2.066406 27.167969 2.265625 27.433594 2.300781 27.632812 C 2.351562 27.917969 2.464844 28 2.851562 28 C 3.148438 28 3.316406 27.933594 3.25 27.832031 C 3.199219 27.734375 3.035156 27.667969 2.898438 27.667969 C 2.765625 27.667969 2.582031 27.484375 2.5 27.25 C 2.382812 26.949219 2.214844 26.832031 1.882812 26.832031 L 1.417969 26.832031 Z M 1.832031 27.050781 "/>
<path style=" stroke:none;fill-rule:nonzero;fill:rgb(0%,0%,0%);fill-opacity:1;" d="M 0.183594 27.601562 C 0.300781 27.734375 0.699219 27.832031 1.132812 27.832031 C 2.082031 27.832031 2 27.734375 0.867188 27.535156 C 0.132812 27.398438 0.0351562 27.417969 0.183594 27.601562 Z M 0.183594 27.601562 "/>
<path style=" stroke:none;fill-rule:nonzero;fill:rgb(0%,0%,0%);fill-opacity:1;" d="M 0.25 28.5 C 0.351562 29.132812 0.550781 30.234375 0.582031 30.332031 C 0.601562 30.382812 0.667969 30.734375 0.75 31.101562 C 0.867188 31.765625 0.917969 31.816406 1.984375 32.214844 C 2.984375 32.617188 3.785156 32.75 4.535156 32.683594 C 4.75 32.667969 4.800781 32.5 4.800781 31.917969 C 4.800781 31.066406 4.433594 30.851562 4.398438 31.683594 C 4.367188 32.484375 4.148438 32.582031 3.132812 32.25 C 1.917969 31.851562 1.117188 31.449219 1.035156 31.183594 C 0.984375 31.015625 1.066406 31 1.351562 31.082031 C 1.714844 31.199219 1.699219 31.167969 1.214844 30.667969 C 0.667969 30.101562 0.449219 29.617188 0.917969 30 C 1.316406 30.332031 1.433594 30.035156 1.117188 29.484375 C 0.964844 29.199219 0.832031 28.867188 0.832031 28.734375 C 0.832031 28.601562 0.734375 28.5 0.601562 28.5 C 0.464844 28.5 0.316406 28.398438 0.265625 28.285156 C 0.214844 28.183594 0.214844 28.265625 0.25 28.5 Z M 0.25 28.5 "/>
<path style=" stroke:none;fill-rule:nonzero;fill:rgb(0%,0%,0%);fill-opacity:1;" d="M 1.25 28.617188 C 1.351562 28.714844 1.683594 28.832031 2 28.898438 C 2.382812 28.964844 2.515625 28.949219 2.398438 28.832031 C 2.316406 28.75 1.984375 28.617188 1.667969 28.566406 C 1.285156 28.5 1.132812 28.515625 1.25 28.617188 Z M 1.25 28.617188 "/>
<path style=" stroke:none;fill-rule:nonzero;fill:rgb(0%,0%,0%);fill-opacity:1;" d="M 44.832031 29.285156 C 44.832031 29.785156 44.964844 30.382812 45.199219 30.867188 C 45.714844 31.917969 46.101562 32.066406 46.484375 31.351562 C 46.632812 31.101562 46.582031 31.066406 46.148438 31.132812 C 45.816406 31.183594 45.667969 31.132812 45.667969 30.984375 C 45.667969 30.851562 45.550781 30.535156 45.398438 30.25 C 45.265625 29.984375 45.132812 29.464844 45.117188 29.132812 C 45.082031 28.214844 44.832031 28.351562 44.832031 29.285156 Z M 44.832031 29.285156 "/>
<path style=" stroke:none;fill-rule:nonzero;fill:rgb(0%,0%,0%);fill-opacity:1;" d="M 45.667969 29.265625 C 45.667969 29.398438 45.765625 29.5 45.898438 29.5 C 46.015625 29.5 46.316406 29.648438 46.566406 29.851562 C 47.082031 30.25 47.132812 30.050781 46.648438 29.484375 C 46.265625 29.050781 45.667969 28.917969 45.667969 29.265625 Z M 45.667969 29.265625 "/>
<path style=" stroke:none;fill-rule:nonzero;fill:rgb(0%,0%,0%);fill-opacity:1;" d="M 1.699219 30.035156 C 1.734375 30.332031 1.832031 30.398438 2.167969 30.367188 C 2.398438 30.332031 2.617188 30.265625 2.648438 30.234375 C 2.765625 30.117188 2.449219 29.882812 2.035156 29.75 C 1.683594 29.648438 1.648438 29.683594 1.699219 30.035156 Z M 1.699219 30.035156 "/>
<path style=" stroke:none;fill-rule:nonzero;fill:rgb(0%,0%,0%);fill-opacity:1;" d="M 3 29.765625 C 3 29.816406 3.117188 29.984375 3.265625 30.117188 C 3.449219 30.316406 3.5 30.566406 3.449219 30.949219 C 3.367188 31.417969 3.398438 31.515625 3.632812 31.464844 C 4.050781 31.382812 4.066406 30.632812 3.667969 30.117188 C 3.332031 29.699219 3 29.515625 3 29.765625 Z M 3 29.765625 "/>
<path style=" stroke:none;fill-rule:nonzero;fill:rgb(0%,0%,0%);fill-opacity:1;" d="M 47.285156 30.117188 C 47 30.398438 47.183594 30.667969 47.582031 30.566406 C 48.167969 30.417969 48.117188 30.734375 47.484375 31.167969 C 46.765625 31.683594 47 31.765625 47.75 31.25 C 48.101562 31.015625 48.535156 30.832031 48.734375 30.832031 C 48.933594 30.832031 49.199219 30.75 49.332031 30.667969 C 49.535156 30.550781 49.535156 30.464844 49.367188 30.300781 C 49.214844 30.148438 49.117188 30.132812 49.035156 30.265625 C 48.882812 30.5 48.132812 30.699219 48.265625 30.464844 C 48.464844 30.148438 47.566406 29.832031 47.285156 30.117188 Z M 47.285156 30.117188 "/>
<path style=" stroke:none;fill-rule:nonzero;fill:rgb(0%,0%,0%);fill-opacity:1;" d="M 48.75 31.332031 C 48.699219 31.417969 48.484375 31.5 48.285156 31.515625 C 48.082031 31.515625 48 31.566406 48.101562 31.601562 C 48.199219 31.648438 48.25 31.867188 48.199219 32.082031 C 48.167969 32.316406 48.066406 32.449219 47.984375 32.398438 C 47.683594 32.234375 47.832031 32.632812 48.214844 33.035156 L 48.601562 33.449219 L 48.882812 32.484375 C 49.035156 31.949219 49.167969 31.433594 49.167969 31.332031 C 49.167969 31.117188 48.882812 31.117188 48.75 31.332031 Z M 48.75 31.332031 "/>
<path style=" stroke:none;fill-rule:nonzero;fill:rgb(0%,0%,0%);fill-opacity:1;" d="M 46.367188 32.265625 C 46.167969 32.515625 46.035156 32.75 46.101562 32.816406 C 46.167969 32.867188 46.25 32.832031 46.285156 32.714844 C 46.316406 32.601562 46.449219 32.550781 46.566406 32.601562 C 46.699219 32.648438 46.816406 32.515625 46.867188 32.265625 C 46.984375 31.714844 46.851562 31.734375 46.367188 32.265625 Z M 46.367188 32.265625 "/>
<path style=" stroke:none;fill-rule:nonzero;fill:rgb(0%,0%,0%);fill-opacity:1;" d="M 5.816406 32.035156 C 5.816406 32.066406 5.785156 32.367188 5.734375 32.699219 C 5.648438 33.382812 5.851562 33.601562 6.285156 33.351562 C 6.449219 33.25 6.484375 33.167969 6.382812 33.167969 C 6.25 33.167969 6.167969 32.933594 6.167969 32.582031 C 6.167969 32.265625 6.101562 32 6 32 C 5.917969 32 5.832031 32.015625 5.816406 32.035156 Z M 5.816406 32.035156 "/>
<path style=" stroke:none;fill-rule:nonzero;fill:rgb(0%,0%,0%);fill-opacity:1;" d="M 46.582031 33.351562 C 46.582031 33.75 46.683594 33.933594 47 34.066406 C 47.234375 34.167969 47.535156 34.398438 47.683594 34.566406 C 47.949219 34.898438 47.949219 34.898438 48.132812 34.550781 C 48.316406 34.199219 48.148438 34.050781 47.285156 33.765625 C 47.132812 33.714844 46.917969 33.484375 46.832031 33.25 C 46.632812 32.699219 46.582031 32.714844 46.582031 33.351562 Z M 46.582031 33.351562 "/>
<path style=" stroke:none;fill-rule:nonzero;fill:rgb(0%,0%,0%);fill-opacity:1;" d="M 1.417969 33.449219 C 1.484375 33.617188 1.648438 34.066406 1.785156 34.449219 C 1.917969 34.851562 2.117188 35.167969 2.214844 35.167969 C 2.316406 35.167969 2.332031 35.214844 2.285156 35.265625 C 2.015625 35.535156 4.515625 39.515625 6.183594 41.464844 C 9.648438 45.535156 15.167969 48.632812 20.648438 49.582031 C 22.214844 49.867188 23.648438 49.898438 23.082031 49.667969 C 22.765625 49.535156 22.765625 49.515625 23.066406 49.515625 C 23.25 49.5 23.332031 49.449219 23.265625 49.382812 C 23.199219 49.316406 22.683594 49.265625 22.117188 49.25 C 21.117188 49.25 21.082031 49.234375 21.035156 48.800781 C 20.964844 48.25 20.667969 48.183594 20.648438 48.699219 C 20.648438 48.917969 20.601562 48.984375 20.550781 48.867188 C 20.5 48.734375 20.101562 48.667969 19.433594 48.667969 C 18.617188 48.667969 17.964844 48.515625 16.566406 48 C 15.566406 47.617188 14.648438 47.285156 14.515625 47.234375 C 14.199219 47.132812 14.765625 46.683594 15.25 46.667969 C 15.433594 46.648438 15.484375 46.601562 15.367188 46.550781 C 15.25 46.5 14.933594 46.550781 14.667969 46.648438 C 14.214844 46.800781 14 46.734375 12.949219 46.199219 C 12.25 45.832031 11.683594 45.433594 11.582031 45.199219 C 11.5 45 11.316406 44.867188 11.199219 44.917969 C 11.082031 44.964844 10.765625 44.882812 10.5 44.75 C 9.734375 44.351562 6.082031 40.667969 5.398438 39.582031 C 5.035156 39.035156 4.648438 38.515625 4.550781 38.449219 C 4.433594 38.382812 4.332031 38.167969 4.332031 38 C 4.332031 37.816406 4.265625 37.667969 4.167969 37.667969 C 4.082031 37.667969 4 37.550781 4 37.417969 C 4 37.285156 4.117188 37.167969 4.25 37.167969 C 4.382812 37.167969 4.5 37.082031 4.5 36.984375 C 4.5 36.882812 4.351562 36.832031 4.167969 36.882812 C 4 36.933594 3.714844 36.867188 3.550781 36.734375 C 3.382812 36.617188 3.300781 36.5 3.367188 36.5 C 3.433594 36.5 3.265625 36.25 2.984375 35.964844 C 2.714844 35.667969 2.5 35.351562 2.5 35.265625 C 2.5 35.183594 2.367188 34.964844 2.214844 34.800781 C 1.964844 34.515625 1.964844 34.464844 2.167969 34.332031 C 2.300781 34.234375 2.683594 34.167969 3 34.148438 L 3.582031 34.132812 L 2.851562 33.898438 C 2.449219 33.785156 1.984375 33.566406 1.832031 33.417969 C 1.464844 33.082031 1.265625 33.101562 1.417969 33.449219 Z M 1.417969 33.449219 "/>
<path style=" stroke:none;fill-rule:nonzero;fill:rgb(0%,0%,0%);fill-opacity:1;" d="M 6.882812 33.667969 C 6.832031 33.851562 6.734375 34 6.667969 34 C 6.601562 34 6.5 34.132812 6.433594 34.285156 C 6.382812 34.449219 6.285156 34.699219 6.234375 34.832031 C 6.148438 35.015625 6.199219 35.015625 6.449219 34.785156 C 6.632812 34.632812 6.816406 34.535156 6.867188 34.582031 C 6.898438 34.632812 6.949219 34.566406 6.964844 34.449219 C 6.984375 34.351562 7.015625 34.050781 7.066406 33.785156 C 7.148438 33.265625 7.015625 33.167969 6.882812 33.667969 Z M 6.882812 33.667969 "/>
<path style=" stroke:none;fill-rule:nonzero;fill:rgb(0%,0%,0%);fill-opacity:1;" d="M 4.667969 33.617188 C 4.351562 33.667969 4.015625 33.765625 3.917969 33.867188 C 3.699219 34.066406 5.351562 33.867188 5.582031 33.648438 C 5.667969 33.550781 5.632812 33.515625 5.5 33.535156 C 5.367188 33.535156 4.984375 33.582031 4.667969 33.617188 Z M 4.667969 33.617188 "/>
<path style=" stroke:none;fill-rule:nonzero;fill:rgb(0%,0%,0%);fill-opacity:1;" d="M 5.964844 35.617188 C 5.867188 35.882812 5.800781 36.183594 5.816406 36.316406 C 5.851562 36.464844 5.765625 36.515625 5.601562 36.449219 C 5.433594 36.382812 5.332031 36.433594 5.332031 36.582031 C 5.332031 36.714844 5.285156 36.816406 5.214844 36.816406 C 4.765625 36.75 4.632812 36.832031 4.832031 37.082031 C 4.964844 37.25 5.117188 37.285156 5.316406 37.183594 C 6.050781 36.765625 6.234375 36.515625 6.265625 35.851562 C 6.300781 35.050781 6.234375 35 5.964844 35.617188 Z M 5.964844 35.617188 "/>
<path style=" stroke:none;fill-rule:nonzero;fill:rgb(0%,0%,0%);fill-opacity:1;" d="M 7.015625 36.117188 C 7.234375 37.066406 7.234375 37.082031 6.25 37.582031 C 5.75 37.851562 5.332031 38.132812 5.332031 38.199219 C 5.332031 38.265625 5.617188 38.183594 5.949219 38 C 6.300781 37.816406 6.632812 37.667969 6.714844 37.667969 C 6.917969 37.667969 7.433594 37.117188 7.417969 36.917969 C 7.351562 36.285156 7.132812 35.5 7.015625 35.5 C 6.933594 35.5 6.933594 35.785156 7.015625 36.117188 Z M 7.015625 36.117188 "/>
<path style=" stroke:none;fill-rule:nonzero;fill:rgb(0%,0%,0%);fill-opacity:1;" d="M 22.898438 39.867188 C 23.132812 41.117188 23.285156 41.265625 23.285156 40.25 C 23.285156 39.765625 23.199219 39.484375 23.035156 39.417969 C 22.851562 39.351562 22.816406 39.433594 22.898438 39.867188 Z M 22.898438 39.867188 "/>
<path style=" stroke:none;fill-rule:nonzero;fill:rgb(0%,0%,0%);fill-opacity:1;" d="M 23.285156 41.699219 C 23.398438 42.351562 23.867188 43.5 24.015625 43.5 C 24.066406 43.5 24.035156 43.234375 23.933594 42.917969 C 23.832031 42.601562 23.699219 42.332031 23.632812 42.332031 C 23.550781 42.332031 23.5 42.117188 23.5 41.851562 C 23.5 41.566406 23.433594 41.300781 23.332031 41.25 C 23.234375 41.183594 23.214844 41.351562 23.285156 41.699219 Z M 23.285156 41.699219 "/>
<path style=" stroke:none;fill-rule:nonzero;fill:rgb(0%,0%,0%);fill-opacity:1;" d="M 20.714844 44.933594 C 20.601562 45.050781 20.5 45.183594 20.5 45.214844 C 20.5 45.367188 21.234375 45.484375 21.398438 45.367188 C 21.5 45.300781 22.035156 45.167969 22.582031 45.050781 L 23.582031 44.851562 L 22.433594 44.933594 C 21.816406 44.984375 21.214844 44.949219 21.101562 44.851562 C 20.984375 44.75 20.851562 44.785156 20.714844 44.933594 Z M 20.714844 44.933594 "/>
<path style=" stroke:none;fill-rule:nonzero;fill:rgb(0%,0%,0%);fill-opacity:1;" d="M 23.648438 45.734375 C 23.484375 46.066406 23.484375 46.484375 23.648438 47.550781 C 23.75 48.300781 23.851562 49.117188 23.867188 49.367188 C 23.898438 49.632812 24 49.832031 24.101562 49.832031 C 24.25 49.832031 24.265625 49.699219 24.167969 49.332031 C 24.082031 49.035156 24.082031 48.832031 24.183594 48.832031 C 24.285156 48.832031 24.265625 48.714844 24.183594 48.550781 C 23.898438 48.035156 23.699219 46.285156 23.851562 45.851562 C 24.066406 45.300781 23.882812 45.183594 23.648438 45.734375 Z M 23.648438 45.734375 "/>
<path style=" stroke:none;fill-rule:nonzero;fill:rgb(0%,0%,0%);fill-opacity:1;" d="M 17.332031 45.917969 C 16.816406 46.066406 16.714844 46.132812 17 46.148438 C 17.234375 46.148438 17.648438 46.050781 17.917969 45.917969 C 18.550781 45.632812 18.316406 45.632812 17.332031 45.917969 Z M 17.332031 45.917969 "/>
<path style=" stroke:none;fill-rule:nonzero;fill:rgb(0%,0%,0%);fill-opacity:1;" d="M 20.667969 46.066406 C 20.464844 46.601562 20.449219 47.25 20.632812 47.832031 C 20.714844 48.132812 20.785156 47.898438 20.832031 47 C 20.949219 45.582031 20.917969 45.433594 20.667969 46.066406 Z M 20.667969 46.066406 "/>
</g>
</svg>
